<?xml version="1.0" encoding="utf-8"?>
<svg xmlns="http://www.w3.org/2000/svg" width="960" height="654" viewBox="0 0 960 654">
    <defs>
        <linearGradient id="a" x1="51.221%" x2="48.615%" y1="104.92%" y2="5.006%">
            <stop offset="0%" stop-color="#623FE9"/>
            <stop offset="3%" stop-color="#6244E9"/>
            <stop offset="37%" stop-color="#6084EE"/>
            <stop offset="65%" stop-color="#5EB3F1"/>
            <stop offset="87%" stop-color="#5DCFF3"/>
            <stop offset="100%" stop-color="#5DDAF4"/>
        </linearGradient>
        <linearGradient id="b" x1="36.722%" x2="63.953%" y1="20.883%" y2="79.592%">
            <stop offset="0%" stop-color="#FF007E"/>
            <stop offset="100%" stop-color="#5708D3"/>
        </linearGradient>
        <linearGradient id="c" x1="36.811%" x2="63.859%" y1="20.883%" y2="79.592%">
            <stop offset="0%" stop-color="#FF007E"/>
            <stop offset="100%" stop-color="#5708D3"/>
        </linearGradient>
        <linearGradient id="d" x1="47.942%" x2="52.163%" y1="20.883%" y2="79.592%">
            <stop offset="0%" stop-color="#FF007E"/>
            <stop offset="100%" stop-color="#5708D3"/>
        </linearGradient>
    </defs>
    <g fill="none" fill-rule="nonzero">
        <path d="M847.923 414.411c0-181.414-147.057-383.31-328.438-383.31-181.38 0-403.266 201.896-403.266 383.31 0 181.414 221.852 238.652 403.233 238.652 181.38 0 328.471-57.271 328.471-238.652z"/>
        <path d="M939.715 414.411c0-181.414-147.025-383.31-328.438-383.31-181.414 0-328.537 201.896-328.537 383.31 0 181.414 147.057 238.652 328.438 238.652 181.38 0 328.537-57.271 328.537-238.652z"/>
        <path fill="url(#a)" d="M23.625 95.118l.559.263a13.841 13.841 0 0 0 14.235-.296 58.652 58.652 0 0 0 14.269-8.877 29.589 29.589 0 0 0 10.356-18.213 6.345 6.345 0 0 0-.756-4.603 5.195 5.195 0 0 0-6.017-1.25 18.838 18.838 0 0 0-5.293 3.847 6.082 6.082 0 0 1-2.334 1.512 2.203 2.203 0 0 1-2.466-.822c-.723-1.315.526-2.794 1.677-3.747 2.663-2.203 5.161-3.485 7.923-5.458a26.301 26.301 0 0 0 8.68-9.304 13.71 13.71 0 0 0 .328-12.329 7.43 7.43 0 0 0-2.531-2.893 8.91 8.91 0 0 0-6.576-.69 60.658 60.658 0 0 1-6.74 1.578c-5.424.559-7.56-3.288-7.43-8.252 0-3.288 1.151-6.576 1.349-9.863a15.255 15.255 0 0 0-7.924-14.663 10.915 10.915 0 0 0-14.663 5.457c-2.071 6.05 2.663 12.855-.46 18.674a18.148 18.148 0 0 1-5.129 5.59c-2.992 1.84-7.266-.33-10.75 0a3.09 3.09 0 0 0-2.137.69 2.86 2.86 0 0 0-.658 1.545 12.723 12.723 0 0 0 3.88 11.67c3.583 3.289 9.862 4.932 11.309 10.061.953 3.288.559 11.08-4.504 10.29-1.907-.328-3.288-2.202-4.964-2.794a5.096 5.096 0 0 0-5.853 2.86 9.074 9.074 0 0 0 .165 6.937 29.096 29.096 0 0 0 6.575 8.976c5.326 5.326 8.844 10.619 15.88 14.104z" transform="translate(66.753 508.301)"/>
        <path fill="#1F0645" d="M96.657 529.643h2.5v123.255h-2.5z"/>
        <path fill="#1F0645" d="M97.907 567.058l15.189-15.157-1.775-1.775-13.414 13.414-13.414-13.414-1.775 1.775zM97.907 595.792l15.189-15.19-1.775-1.742-13.414 13.414-13.414-13.414-1.775 1.743z"/>
        <g>
            <path fill="url(#b)" d="M59.375 132.88l-.756.361c-7.956 3.814-12.164 3.288-19.923-.394a80.712 80.712 0 0 1-19.923-12.428A41.589 41.589 0 0 1 4.274 94.973a9.074 9.074 0 0 1 1.052-6.576 7.233 7.233 0 0 1 8.416-1.742 25.02 25.02 0 0 1 7.398 5.687 8.811 8.811 0 0 0 3.287 2.105 3.09 3.09 0 0 0 3.452-1.151c1.053-1.841-.723-3.912-2.334-5.26-3.715-3.09-7.2-4.866-11.08-7.628A36.592 36.592 0 0 1 2.368 67.422a19.134 19.134 0 0 1-.493-17.26 10.06 10.06 0 0 1 3.55-4.044 12.625 12.625 0 0 1 9.37-.986 95.145 95.145 0 0 0 9.403 2.235c7.595.79 10.587-4.57 10.422-11.54 0-4.668-1.61-9.238-1.874-13.906A21.337 21.337 0 0 1 43.792 1.405c7.43-3.517 17.852 0 20.515 7.66 2.893 8.483-3.715 17.984.657 26.072a24.888 24.888 0 0 0 7.168 7.858c4.175 2.564 10.158-.46 14.991-.23a4.405 4.405 0 0 1 3.025.953c.509.62.828 1.373.92 2.17a17.885 17.885 0 0 1-5.424 16.438c-4.997 4.57-13.71 6.904-15.847 14.038-1.315 4.439-.756 15.518 6.313 14.368 2.663-.395 4.438-3.025 6.97-3.88a7.036 7.036 0 0 1 8.153 4.011 12.427 12.427 0 0 1-.23 9.699 40.175 40.175 0 0 1-9.304 12.526c-7.53 7.528-12.428 14.926-22.324 19.791z" transform="translate(0 433.685)"/>
            <path fill="#1F0645" d="M47.638 463.43h2.499v189.5h-2.499z"/>
            <path fill="#1F0645" d="M48.888 515.047L28.01 494.17l1.742-1.743 19.135 19.102 19.101-19.102 1.775 1.743zM48.888 555.222L28.01 534.345l1.742-1.775 19.135 19.134 19.101-19.134 1.775 1.775z"/>
        </g>
        <g>
            <path fill="url(#c)" d="M60.137 133.4l-.756.362c-7.956 3.813-12.165 3.287-19.923-.395a80.712 80.712 0 0 1-19.924-12.427A41.589 41.589 0 0 1 5.036 95.493a9.074 9.074 0 0 1 1.052-6.575 7.233 7.233 0 0 1 8.416-1.743 25.02 25.02 0 0 1 7.397 5.392 8.416 8.416 0 0 0 3.288 2.104 3.09 3.09 0 0 0 3.452-1.15c1.052-1.842-.723-3.913-2.334-5.26-3.715-3.091-7.2-4.866-11.08-7.628A36.592 36.592 0 0 1 3.13 67.483a19.134 19.134 0 0 1-.493-17.261 10.06 10.06 0 0 1 3.55-4.044 12.625 12.625 0 0 1 9.37-.986c3.09.92 6.23 1.666 9.403 2.235 7.594.79 10.586-4.57 10.422-11.54 0-4.668-1.611-9.238-1.874-13.906A21.337 21.337 0 0 1 44.553 1.466c7.43-3.518 17.852 0 20.515 7.66 2.894 8.482-3.715 17.984.658 26.071a24.888 24.888 0 0 0 7.167 7.858c4.175 2.564 10.16-.46 14.992-.23a4.405 4.405 0 0 1 3.025.953c.495.628.813 1.377.92 2.17a17.885 17.885 0 0 1-5.425 16.438c-4.997 4.57-13.71 6.904-15.846 14.039-1.315 4.438-.756 15.517 6.312 14.367 2.663-.395 4.439-3.025 6.97-3.88a7.036 7.036 0 0 1 8.154 4.011 12.427 12.427 0 0 1-.23 9.699 40.175 40.175 0 0 1-9.305 12.526c-7.528 7.989-12.427 15.386-22.323 20.252z" transform="translate(866.658 464.562)"/>
            <path fill="#1F0645" d="M915.058 494.828h2.499v158.104h-2.5z"/>
            <path fill="#1F0645" d="M916.307 546.444l-20.877-20.877 1.743-1.775 19.134 19.134 19.101-19.134 1.776 1.775zM916.307 586.62l-20.877-20.878 1.743-1.775 19.134 19.134 19.101-19.134 1.776 1.775z"/>
        </g>
        <g>
            <g fill="#1F0645">
                <path d="M755.09 526.415l3.049-1.546 63.879 125.967-3.05 1.546zM800.492 526.872l3.05-1.547 63.879 125.968-3.05 1.546z"/>
                <path d="M763.924 538.389h45.173v3.419h-45.173zM778.784 567.715h45.173v3.419h-45.173zM793.677 597.074h45.173v3.419h-45.173zM808.537 626.4h45.173v3.419h-45.173z"/>
            </g>
            <g fill="#1F0645">
                <path d="M639.834 650.846L703.758 524.9l3.048 1.548-63.923 125.944zM594.447 651.365l63.923-125.944 3.049 1.547-63.923 125.945z"/>
                <path d="M652.8 538.389h45.173v3.419H652.8zM637.907 567.715h45.173v3.419h-45.173zM623.047 597.074h45.173v3.419h-45.173zM608.186 626.4h45.173v3.419h-45.173z"/>
            </g>
            <path fill="#FF007E" d="M637.71 516.132h192.789V528h-192.79z"/>
            <path fill="#5708D3" d="M806.367 409.315h11.31a4.143 4.143 0 0 0 4.11-4.142V390.74a4.11 4.11 0 0 0-4.143-4.11h-8.877a3.518 3.518 0 0 1-3.288-2.334 22.389 22.389 0 0 0-1.019-2.433 3.55 3.55 0 0 1 .658-3.945l6.246-6.247a4.077 4.077 0 0 0 0-5.852l-10.191-10.192a4.142 4.142 0 0 0-5.852 0l-6.28 6.313a3.288 3.288 0 0 1-3.748.723l-2.827-1.02a3.288 3.288 0 0 1-2.17-3.287v-8.942a4.11 4.11 0 0 0-4.143-4.143h-14.4a4.11 4.11 0 0 0-4.142 4.143v8.942a3.452 3.452 0 0 1-2.334 3.288c-.855.329-1.71.69-2.532 1.085a3.518 3.518 0 0 1-3.945-.658l-6.28-6.213a4.142 4.142 0 0 0-5.852 0l-10.093 10.093a4.142 4.142 0 0 0 0 5.852l6.576 6.28a3.288 3.288 0 0 1 .723 3.78c-.395.92-.79 1.874-1.085 2.729a3.288 3.288 0 0 1-3.288 2.17h-8.942a4.208 4.208 0 0 0-4.143 4.175v14.4a4.11 4.11 0 0 0 4.143 4.142h8.844a3.518 3.518 0 0 1 3.287 2.302c.298.839.638 1.662 1.02 2.466a3.452 3.452 0 0 1-.658 3.912l-6.247 6.28a4.11 4.11 0 0 0 0 5.851l10.192 10.16a4.11 4.11 0 0 0 5.852 0l6.313-6.313a3.288 3.288 0 0 1 3.78-.723l2.696 1.085a3.288 3.288 0 0 1 2.17 3.287v8.943a4.11 4.11 0 0 0 4.176 4.11h14.4a4.143 4.143 0 0 0 4.142-4.176v-8.844c0-1.48.937-2.799 2.334-3.287l2.433-1.02a3.518 3.518 0 0 1 3.945.625l6.247 6.28a4.11 4.11 0 0 0 5.852 0l10.192-10.192a4.142 4.142 0 0 0 0-5.852l-6.313-6.313a3.288 3.288 0 0 1-.723-3.78c.986-2.236 1.808-4.8 1.874-4.965zm-57.37-14.992a20.416 20.416 0 1 1 40.167 7.348 20.416 20.416 0 0 1-40.167-7.348z"/>
            <path fill="#F1F2F2" d="M313.25 595.463h60.558v48.79H313.25z"/>
            <path fill="#1B1B1C" d="M302.433 642.28h82.192v10.618h-82.192zM325.02 618.213h37.018v3.288H325.02zM325.02 625.578h37.018v3.288H325.02zM325.02 632.942h37.018v3.288H325.02z"/>
            <path fill="#F1F2F2" d="M543.617 595.463h60.559v48.79h-60.56z"/>
            <path fill="#1B1B1C" d="M532.8 642.28h82.192v10.618H532.8zM555.387 618.213h37.019v3.288h-37.02zM555.387 625.578h37.019v3.288h-37.02zM555.387 632.942h37.019v3.288h-37.02z"/>
            <g>
                <path fill="url(#d)" d="M153.52 576.69H.053V122.992A137.392 137.392 0 0 1 53.345 14.499l11.408-8.943a19.726 19.726 0 0 1 23.902 0l12.887 9.863a133.644 133.644 0 0 1 51.979 105.863V576.69z" transform="translate(382.37)"/>
                <path fill="#525D7A" d="M482.992 15.682L466.849 3.288c-9.04-7.003-15.123-1.052-19.726 3.287.526 1.283 9.863-4.997 10.093-4.8l7.496 1.973c33.304 25.71 47.672 77.392 47.672 119.474v451.003a2.499 2.499 0 0 0 2.465 2.465h18.609a2.499 2.499 0 0 0 2.465-2.465V123.222a135.945 135.945 0 0 0-52.931-107.54z" opacity=".15"/>
                <path fill="#FFF" d="M473.195 8.12l-6.346-4.832c-5.03-3.88-6.575-1.217-7.726-1.578l-4.865-.855a73.775 73.775 0 0 1-2.86 2.367L444 8.942a139.2 139.2 0 0 0-51.09 107.705V576.69h28.24V116.647A139.266 139.266 0 0 1 473.196 8.12z" opacity=".3"/>
            </g>
            <g>
                <path fill="#FFF" d="M382.422 612.427h-77.786V292.603a141.173 141.173 0 0 1 32.317-89.852 8.548 8.548 0 0 1 13.151 0 141.173 141.173 0 0 1 32.318 89.852v319.824z"/>
                <path fill="#1B1B1C" d="M375.189 248.252a141.37 141.37 0 0 0-25.085-45.403 8.548 8.548 0 0 0-13.15 0 141.37 141.37 0 0 0-25.086 45.403h63.321z"/>
                <path fill="#1B1B1C" d="M350.104 202.85a8.416 8.416 0 0 0-5.622-2.96c18.773 24.56 18.345 61.809 18.345 92.811v319.726h19.726V292.603a141.173 141.173 0 0 0-32.449-89.754z" opacity=".15"/>
            </g>
            <g>
                <path fill="#1B1B1C" d="M604.044 239.31a141.863 141.863 0 0 0-18.839-50.663 8.482 8.482 0 0 0-12.986-1.874 144.658 144.658 0 0 0-32.022 43.364l63.847 9.173z"/>
                <path fill="#FFF" d="M605.26 249.534a146.63 146.63 0 0 1 7.529 43.069v319.726h-77.786V292.603a141.37 141.37 0 0 1 6.772-43.135l63.485.066z"/>
                <path fill="#1B1B1C" d="M541.94 249.074a153.929 153.929 0 0 0-6.937 43.529v319.726h19.726V292.603c0-12.92 0-29.885 1.183-43.628l-13.972.099z" opacity=".15"/>
            </g>
            <path fill="#231F20" d="M602.729 559.397V499.43a83.277 83.277 0 0 0-25.15-59.441 292.866 292.866 0 0 1-32.121-35.375l-19.924-26.96V264.1a113.82 113.82 0 0 0-43.956-89.49l-3.88-2.993a13.808 13.808 0 0 0-6.838-2.761c-1.742-1.71-1.676-1.71-3.287 0a13.808 13.808 0 0 0-6.839 2.761l-2.893 2.236a116.318 116.318 0 0 0-44.942 91.496v109.71l-21.863 29.589a292.603 292.603 0 0 1-32.088 35.375 83.211 83.211 0 0 0-25.184 59.441v59.967H412.9v19.562h112.767V559.43l77.063-.033z" opacity=".3"/>
            <g>
                <path fill="#F1F2F2" d="M423.88 556.57h71.276v57.436H423.88z"/>
                <path fill="#1B1B1C" d="M411.156 611.67h96.756v12.527h-96.756zM326.827 557.129h90.05v-196.11l-33.239 44.943a288.559 288.559 0 0 1-32.317 35.638 80.58 80.58 0 0 0-24.494 57.83v57.699z"/>
                <path fill="#312075" d="M388.11 399.945V557.13h28.767v-196.11z" opacity=".3"/>
                <path fill="#1B1B1C" d="M591.529 556.18h-90.05V360.96l33.239 44.745a294.937 294.937 0 0 0 32.35 35.474 80.055 80.055 0 0 1 24.46 57.567v57.436z"/>
                <path fill="#312075" d="M532.899 399.945V557.13h-28.767v-196.11z" opacity=".3"/>
                <path fill="#FFF" d="M513.797 576.69h-107.44V259.463a95.967 95.967 0 0 1 37.479-75.978l6.575-5.195a15.947 15.947 0 0 1 9.699-3.287 15.88 15.88 0 0 1 9.698 3.287l7.66 5.82a93.406 93.406 0 0 1 36.33 73.94v318.64z"/>
                <path fill="#1B1B1C" d="M489.206 476.598l2.745-2.754-31.763-31.885-10.91 10.937 15.7 15.765a45.391 45.391 0 0 0-13.193-1.929 44.026 44.026 0 0 0-12.6 1.8l8.078-8.109-2.745-2.751-16.039 16.078 2.755 2.761c1.18-.86 8.539-5.896 20.541-5.896 11.822 0 19.562 4.897 20.95 5.84l2.768-2.772-20.733-20.787 5.423-5.436 29.023 29.138z"/>
                <path fill="#525D7A" d="M463.562 181.545l-9.666-7.496-8.68 6.576a96.756 96.756 0 0 0-37.545 76.57V576.69h19.726V257.195a96.592 96.592 0 0 1 36.165-75.65z" opacity=".1"/>
                <path fill="#1B1B1C" d="M424.11 203.836l71.67-.592a92.811 92.811 0 0 0-18.41-18.904l-7.693-5.951a15.814 15.814 0 0 0-19.398 0l-6.575 5.195a95.342 95.342 0 0 0-19.594 20.252z"/>
                <path fill="#1F0645" d="M491.014 300.789a3.288 3.288 0 0 1-3.288-3.288 28.307 28.307 0 0 0-9.107-20.778 3.292 3.292 0 0 1 4.471-4.833 34.915 34.915 0 0 1 11.211 25.611 3.288 3.288 0 0 1-3.287 3.288zM428.022 300.789a3.288 3.288 0 0 1-3.288-3.288c.018-19.208 15.576-34.78 34.784-34.816a34.064 34.064 0 0 1 13.545 2.762 3.288 3.288 0 0 1-2.564 6.049 27.912 27.912 0 0 0-10.981-2.236c-15.584.018-28.208 12.657-28.208 28.241a3.288 3.288 0 0 1-3.288 3.288z"/>
                <path fill="#1B1B1C" d="M437.72 583.66h43.595v3.288H437.72zM437.72 592.307h43.595v3.288H437.72zM437.72 600.986h43.595v3.288H437.72z"/>
            </g>
            <g transform="translate(730.863 304.466)">
                <path fill="#F6F6F6" d="M45.849 318.449h8.416v9.205h-8.416zM128.17 316.13l7.552-3.716 4.064 8.26-7.551 3.715z"/>
                <path fill="#1F0645" d="M115.384 161.923l-14.039 30.444-29.293 44.12-13.184 84.954H41.641l5.59-80.22 17.654-57.27 4.405-22.028z"/>
                <path fill="#2B2046" d="M106.803 180.597l-40.011-6.148-1.907 9.502-2.071 6.772a136.011 136.011 0 0 1 9.402 45.535l29.13-43.89 5.457-11.77z" opacity=".3"/>
                <path fill="#FFF" d="M114.693 48.663h17.622v20.449h-17.622z"/>
                <path fill="#5708D3" d="M112.655 63.753l22.389 1.151v4.406s9.205 12.427 8.81 18.838c-.394 6.41-24.854 71.375-28.47 73.775H69.356s18.444-48.526 19.726-53.72c0 0 5.622-26.071 15.65-34.06-.165 0 7.594-5.524 7.923-10.39z"/>
                <path fill="#525D7A" d="M135.044 69.31v-4.406h-6.378v4.406s9.205 12.427 8.81 18.838c-.394 6.41-24.854 71.375-28.438 73.775h6.346c3.616-2.4 28.076-67.364 28.47-73.775.395-6.411-8.81-18.838-8.81-18.838z" opacity=".2"/>
                <path fill="#525D7A" d="M114.068 114.811l-13.15-16.964 12.033-10.39c4.076-4.24 7.2-3.484 11.44.592l.494.756c4.274 4.11 5.95 7.036 4.274 11.474l-15.09 14.532z" opacity=".2"/>
                <path fill="#623FE9" d="M112.096 112.707l-13.644-17.82 14.433-11.046a11.211 11.211 0 0 1 15.748 2.104 11.211 11.211 0 0 1-2.104 15.715l-14.433 11.047z"/>
                <path fill="#525D7A" d="M83.526 123.852a2817.428 2817.428 0 0 1-6.378 17.195l10.422-4.9 26.498-21.369-10.323-13.512-20.219 22.586z" opacity=".2"/>
                <path fill="#FFF" d="M40.556 152.52l43.43-20.449 26.532-21.337-10.356-13.512-21.666 24.164-39.452 24.592 1.545 1.874-7.923.362c-3.288 0-12.526-1.151-16.11 2.564l15.88 1.743h8.12z"/>
                <path fill="#525D7A" d="M107.493 106.855l-26.531 21.37-44.318 22.422-11.145-.46-4.274-1.677a8.811 8.811 0 0 0-4.702 2.17l15.88 1.742h8.022l43.43-20.45 26.531-21.336-2.893-3.781z" opacity=".15"/>
                <path fill="#1F0645" d="M115.384 161.923s2.827 13.611 0 22.455a48.033 48.033 0 0 1-6.806 13.94l4.011 42.74 30.477 73.512-16.439 4.898-22.422-38.038-13.15-25.874-25.776-73.446 4.011-20.088 46.094-.099z"/>
                <path fill="#2B2046" d="M110.78 163.501s2.795 13.644 0 22.455a48.559 48.559 0 0 1-6.805 13.973l4.011 42.904 30.411 73.348 4.833-1.447-30.641-73.446-4.01-42.74a48.033 48.033 0 0 0 6.805-13.94c2.827-8.844 0-22.455 0-22.455H69.356l-.329 1.579 41.754-.23z" opacity=".2"/>
                <path fill="#FFF" d="M139.318 53.167h-25.513a7.266 7.266 0 0 1-7.232-7.266V37.65h-5.228c-1.118-8.515 6.806-14.63 8.154-18.937a6.871 6.871 0 0 0-2.926-8.844h32.876l-.131 43.3z"/>
                <path fill="#2B2046" d="M67.153 159.523h50.762v7.167H67.153z"/>
                <path fill="#F6F6F6" d="M38.452 149.792l-5.293-5.063a1.907 1.907 0 0 1-.79-2.532 1.841 1.841 0 0 1 2.5-.822l6.87 3.485a1.907 1.907 0 0 1 .823 2.532c-.592.887-3.32 2.86-4.11 2.4z"/>
                <path fill="#1DCAFF" d="M57.258 324.63H41.904l-6.378 7.233h-13.15a22.06 22.06 0 0 0-19.727 12.066h54.51l.099-19.299z"/>
                <circle cx="49.433" cy="334.296" r="4.8" fill="#FFF"/>
                <path fill="#5708D3" d="M.611 343.929h58.784v4.537H.611z"/>
                <path fill="#1DCAFF" d="M142.737 317.299l-14.17 5.95-3.09 9.14-15.32.263c-7.628 3.288-9.634 3.288-10.225 11.606h28.372l21.863-9.173-7.43-17.786z"/>
                <path fill="#FFF" d="M143.658 327.359a4.8 4.8 0 1 1-8.858 3.701 4.8 4.8 0 0 1 8.858-3.701z"/>
                <path fill="#5708D3" d="M98.748 343.6h31.989v4.537H98.748z"/>
                <path fill="#5708D3" d="M128.961 343.92l21.97-9.412 1.787 4.17-21.97 9.412z"/>
                <path fill="#525D7A" d="M135.11 53.167h4.208V9.868H106.44a6.575 6.575 0 0 1 3.288 7.365c1.844.746 3.859.962 5.819.625a5.984 5.984 0 0 1 3.55.558 12 12 0 0 1 5.327 5.59 44.778 44.778 0 0 1 1.61 10.323c.198 2.466 1.283 7.66 0 9.863-1.051 1.578-4.536.657-6.279 0-3.65-1.545-6.575-4.8-11.704-4.932a2.466 2.466 0 0 0-1.447.625v6.18c0 4 3.233 7.248 7.233 7.267h.888v7.002h1.775c4.044 0 7.43 1.315 11.178-.822 4.274-2.531 2.795-7.857 2.5-11.835-.198-2.63-.231-5.36-.363-7.956 0-1.677-.23-3.485 1.48-4.636 2.926-2.006 5.82 1.48 5.885 4.307.205 3.296.04 6.604-.493 9.863-.263.953-1.217 2.498-1.578 3.912z" opacity=".15"/>
                <path fill="#1F0645" d="M107.164 37.452c5.26 0 8.055 3.288 11.704 4.899a4.142 4.142 0 0 0 5.096-.724c1.414-2.104.526-6.74.33-9.238a37.808 37.808 0 0 0-1.612-9.436c-1.052-2.202-2.038-5.095-4.372-6.18a6.28 6.28 0 0 0-3.551-.592c-5.162.789-7.956-1.414-11.77-4.833a10.882 10.882 0 0 1-2.17-2.433 13.15 13.15 0 0 1-1.282-6.575c-.042-.43.038-.863.23-1.25.362-.493 2.729.724 3.288 1.085a16.438 16.438 0 0 0 11.868 3.288c3.617-.723 6.181-3.912 9.863-3.715a15.748 15.748 0 0 1 10.126 5.95 8.548 8.548 0 0 0 3.288 0 7.266 7.266 0 0 1 6.575 2.138c2.104 2.432 1.315 6.575 1.381 9.501.066 2.926-.526 5.95-.493 8.942a46.027 46.027 0 0 1-1.15 12.69c-.428 1.579 0 3.091-.724 4.472a44.712 44.712 0 0 0-1.907 5.59 5.326 5.326 0 0 1-1.677 2.596c-1.019.757-5.095 1.217-5.95 0-.855-1.216 0-4.635.427-6.115a42.542 42.542 0 0 0 1.513-9.863c0-2.827-2.96-6.28-5.885-4.307a5.129 5.129 0 0 0-2.105 4.735c0 2.564.263 5.26.46 7.89.297 3.978 1.25 9.37-3.024 11.901-3.748 2.137-6.082.822-10.126.757a10.718 10.718 0 0 1-5.655-1.184 10.159 10.159 0 0 1-4.24-5.655c-.494-1.644-1.217-3.287-1.71-4.898a17.82 17.82 0 0 1 0-5.293c.032-1.579 1.643-4.143 3.254-4.143z"/>
                <path fill="#56408B" d="M99.044 4.247c.4-.478 1.053-.66 1.644-.46a5.03 5.03 0 0 1 1.545.953 16.833 16.833 0 0 0 11.835 3.813c3.65-.756 6.181-4.7 9.864-4.504a17.622 17.622 0 0 1 10.849 6.05 4.668 4.668 0 0 0 2.498 0 8.252 8.252 0 0 1 6.773 3.024 7.036 7.036 0 0 1 1.447 4.241 10.652 10.652 0 0 0-1.447-7.43 7.332 7.332 0 0 0-6.575-2.531 5.425 5.425 0 0 1-2.795-.362 16.8 16.8 0 0 0-10.75-5.457c-3.748-.198-6.247 3.057-9.864 3.78a16.833 16.833 0 0 1-11.835-3.813 5.753 5.753 0 0 0-1.545-.954 1.512 1.512 0 0 0-1.644.46c-.193.387-.272.82-.23 1.25V4.64c.06-.14.137-.273.23-.394z"/>
            </g>
            <g>
                <path fill="#F6F6F6" d="M719.711 487.972l13.049-5.933 6.123 13.468-13.048 5.933z"/>
                <path fill="#FF007E" d="M675.189 408.427l13.512 33.239 32.12 51.419 15.617-7.069-32.219-60.591-24-76.932z"/>
                <path fill="#FFF" d="M720.953 492.625l-1.117.493-5.096 12.394-2.828 4.34-8.876 2.433v3.65l10.487.197 32.252-13.611.658-4.34-4.438-10.06-2.828-.526-2.17.986-2.86 7.331-10.126 4.34z"/>
                <path fill="#5708D3" d="M746.433 498.148l-4.438-10.027-2.828-.526-2.17.986-2.86 7.331-10.126 4.34-3.058-7.627-1.117.493-5.096 12.394-2.828 4.34-8.876 2.433v.92h7.693z"/>
                <path fill="#F6F6F6" d="M670.16 491.77h14.333v14.795H670.16z"/>
                <path fill="#F8AA8F" d="M643.101 320.975l18.576 107.836 8.219 68.22h14.827s1.282-63.782-3.057-72.33l3.057-73.874a46.422 46.422 0 0 0 1.381-22.356 16.438 16.438 0 0 0-3.945-8.022l-.493-.526-38.565 1.052z"/>
                <path fill="#525D7A" d="M690.411 444.427c-.855-9.863-1.973-17.819-3.288-20.449l.23-53.03-7.134-22.455-5.03 59.934 13.512 33.239 1.71 2.761z" opacity=".2"/>
                <path fill="#FF007E" d="M643.101 320.975l18.576 107.836 8.219 68.22h14.827s1.282-63.782-3.057-72.33l3.057-73.874a46.422 46.422 0 0 0 1.381-22.356 16.438 16.438 0 0 0-3.945-8.022l-.493-.526-38.565 1.052z"/>
                <path fill="#FFF" d="M668.153 497.03h-1.183l-9.699 9.271-15.386 5.852v3.979h44.975l2.4-3.716v-11.013l-2.4-1.578h-2.4l-5.556 5.556-11.014-.132z"/>
                <path fill="#5708D3" d="M684.46 499.825l-5.556 5.556-11.014-.132.263-8.219h-1.183l-9.699 9.271-15.123 5.754h47.112v-10.652l-2.4-1.578z"/>
                <path fill="#FFF" d="M669.468 225.403h14.73v14.334h-14.73z"/>
                <path fill="#525D7A" d="M669.567 230.334a19.364 19.364 0 0 0 11.836-8.055l-12.954 2.73 1.118 5.325z" opacity=".15"/>
                <path fill="#FFF" d="M665.622 194.236l-.658 7.956a23.901 23.901 0 0 1-5.819 7.824s.526 2.105 1.973 2.269v10.29a4.997 4.997 0 0 0 4.997 5.063h4.833a19.364 19.364 0 0 0 18.444-13.413l3.78-11.639-5.457-11.408-13.742-.789a8.647 8.647 0 0 0-8.351 3.847z"/>
                <path fill="#525D7A" d="M672.625 227.507a19.332 19.332 0 0 0 16.701-13.15l3.78-11.64-5.457-11.407-13.676-.921a8.647 8.647 0 0 0-8.384 3.847l-.296 3.88a24.986 24.986 0 0 0 5.063 3.287c.927.287 1.829.65 2.696 1.085a8.35 8.35 0 0 1 1.743 3.287c.197.428.328.855.493 1.283.822 1.775 3.485 3.09 3.287 5.194a3.09 3.09 0 0 1-1.413 2.17 7.134 7.134 0 0 0-1.94 1.775 5.556 5.556 0 0 0 0 4.406 5.82 5.82 0 0 1 .263 4.438c-.46.822-1.874 1.545-2.86 2.466z" opacity=".15"/>
                <path fill="#1DCAFF" d="M665.063 187.956c-3.09 3.65-.395 8.384 2.597 11.112a24.822 24.822 0 0 0 5.918 3.781c.917.27 1.809.623 2.663 1.052a7.989 7.989 0 0 1 1.775 3.124l.494 1.282c.789 1.808 3.452 3.09 3.287 5.194a3.09 3.09 0 0 1-1.413 2.17c-.745.488-1.401 1.1-1.94 1.808a5.425 5.425 0 0 0 0 4.406 5.786 5.786 0 0 1 .263 4.438c-.723 1.25-2.4 1.973-3.288 3.058-.887 1.085-2.4 2.005-3.287 3.287-1.447 1.874-1.776 4.537-3.288 6.247a29.95 29.95 0 0 1-6.181 4.373 8.252 8.252 0 0 0-4.11 6.575c4.209-1.447 9.403.69 12.954-1.973.625-.46 1.183-1.085 1.808-1.578a28.997 28.997 0 0 1 5.26-2.597 13.15 13.15 0 0 0 4.406-3.715c1.76.46 3.602.528 5.392.197a17.096 17.096 0 0 0 7.232-1.972 17.326 17.326 0 0 0 4.406-4.735l1.907-2.695c.592-.822 1.183-1.644 1.71-2.5a22.62 22.62 0 0 0 3.912-15.648 34.225 34.225 0 0 0-6.181-13.151l-6.312-9.6a13.15 13.15 0 0 0-2.696-3.288 10.455 10.455 0 0 0-3.288-1.644 36.855 36.855 0 0 0-12.888-1.019 15.058 15.058 0 0 0-11.112 4.011z"/>
                <path fill="#FFF" d="M650.4 256.8l-20.844-2.926a19.036 19.036 0 0 1-9.863-4.997l-35.145-33.206-4.143-2.663-11.934-4.8-6.575-5.063c-1.874-1.742-.723-3.287 1.052-2.959l5.096 4.176 2.4 1.019 1.38-.79-8.153-8.186c0-.624 1.348-1.61 2.006-1.578l7.364 6.97 1.644-1.545-8.318-9.041c-1.085-1.545 1.808-2.071 4.504.394l5.326 7.398 1.611-.592-5.03-10.422c.427-.723 2.038.592 2.795 1.02 2.761 1.544 6.805 9.862 6.805 9.862l2.795.79 1.578-2.565-.592-3.288 4.504 4.57-.559 7.2 32.45 30.214 29.128 6.575L650.4 256.8z"/>
                <path fill="#525D7A" d="M631.233 250.685a18.838 18.838 0 0 1-9.863-4.997l-35.014-33.206-4.438-2.663-11.343-4.57h-.197l-2.4-1.019-5.096-4.175c-1.775-.197-2.926 1.216-1.052 2.959l6.575 5.063 11.935 4.8 4.142 2.663 35.014 33.205a19.036 19.036 0 0 0 9.863 4.997l20.844 2.926.296-3.287-19.266-2.696z" opacity=".15"/>
                <g fill="#525D7A" opacity=".15">
                    <path d="M664.438 189.074a11.836 11.836 0 0 1 7.266-4.504 10.816 10.816 0 0 0-6.575 3.288 5.359 5.359 0 0 0-1.085 2.104c.098-.31.23-.607.394-.888zM668.877 244.142a29.326 29.326 0 0 0 5.655-4.964c1.249-1.907 1.216-4.537 2.432-6.575.855-1.414 2.104-2.335 2.992-3.682.888-1.348 2.367-2.137 2.926-3.453a5.918 5.918 0 0 0-.789-4.372 5.326 5.326 0 0 1-.592-4.373c.44-.769 1.02-1.45 1.71-2.005a3.288 3.288 0 0 0 1.118-2.334c-.197-2.105-3.025-3.058-4.011-4.735l-.658-1.216a7.792 7.792 0 0 0-2.137-2.86 15.912 15.912 0 0 0-2.794-.757 24.164 24.164 0 0 1-5.392-2.465 30.74 30.74 0 0 0 4.241 2.531c.917.27 1.809.623 2.663 1.052a7.989 7.989 0 0 1 1.775 3.124l.494 1.282c.789 1.808 3.452 3.09 3.287 5.194a3.09 3.09 0 0 1-1.413 2.17c-.745.488-1.401 1.1-1.94 1.808a5.425 5.425 0 0 0 0 4.406 5.786 5.786 0 0 1 .263 4.438c-.723 1.25-2.4 1.973-3.288 3.058-.887 1.085-2.4 2.005-3.287 3.287-1.447 1.874-1.776 4.537-3.288 6.247a29.95 29.95 0 0 1-6.181 4.34 8.252 8.252 0 0 0-4.11 6.575c2.31-.573 4.7-.75 7.069-.526a9.863 9.863 0 0 1 3.255-5.195z"/>
                </g>
                <path fill="#525D7A" d="M682.159 320.35l-.493-.525-38.565 1.15 1.71 9.863c14.564-3.55 30.608 16.439 41.984 8.581a46.816 46.816 0 0 0-.69-11.112 16.438 16.438 0 0 0-3.946-7.956z" opacity=".2"/>
                <path fill="#5708D3" d="M685.02 233.096s12.196 4.504 12.788 15.452l-14.663 49.315 4.143 28.142c-12.822 11.376-31.858-7.726-48.165 4.406l15.715-62.466a15.978 15.978 0 0 1-2.235-13.808l.46-1.512 16.011-12.92 15.945-6.61z"/>
                <g fill="#2B2046" opacity=".2">
                    <path d="M656.68 265.512l-2.96.526c.33.629.703 1.233 1.118 1.809l-15.715 62.465a21.041 21.041 0 0 1 3.715-2.235l15.157-60.362a16.438 16.438 0 0 1-1.316-2.203zM653.984 326.268c8.383.46 16.8 4.011 24.197 3.485-7.496-.46-15.945-3.945-24.197-3.485z"/>
                </g>
                <path fill="#2B2046" d="M681.666 242.893l-17.622.756-10.981 8.877-.46 1.512a16.175 16.175 0 0 0 1.15 12l24.23-4.372 3.683-18.773z" opacity=".2"/>
                <path fill="#623FE9" d="M681.666 239.737l-29.82 1.25-1.479 17.851 32.778 2.433z"/>
                <path fill="#1DCAFF" d="M707.901 218.203a9.468 9.468 0 0 0-1.578-6.378 8.975 8.975 0 0 0-2.433-1.841 16.438 16.438 0 0 0-2.367-1.25 13.578 13.578 0 0 0-11.342 2.269 25.02 25.02 0 0 0-5.82 4.537 16.701 16.701 0 0 0-2.103 2.893 3.288 3.288 0 0 0-.362 3.288 90.444 90.444 0 0 0 3.288 11.44 11.178 11.178 0 0 0 8.515 7.168c-1.973 6.838.23 13.15 1.315 19.298a30.641 30.641 0 0 0 3.287-4.931 376.278 376.278 0 0 0 4.537-7.89 52.603 52.603 0 0 0 4.603-10.192c1.611-5.951.526-12.296.46-18.411z"/>
                <path fill="#1DCAFF" d="M707.901 218.203c.066-.898.066-1.799 0-2.696.017-.925-.05-1.849-.197-2.762a34.225 34.225 0 0 0-6.18-13.15l-6.313-9.6a13.15 13.15 0 0 0-2.696-3.288 10.455 10.455 0 0 0-3.288-1.644 36.855 36.855 0 0 0-12.887-1.02 15.058 15.058 0 0 0-11.014 3.88 5.556 5.556 0 0 0-1.25 2.63 16.438 16.438 0 0 1 10.192-3.287 36.92 36.92 0 0 1 12.888.855c1.185.33 2.3.877 3.288 1.61a13.94 13.94 0 0 1 2.761 3.288l6.576 9.534a34.422 34.422 0 0 1 6.345 12.987c.158.912.235 1.836.23 2.761.13.882.196 1.772.197 2.663.165 6.148 1.315 12.46-.394 18.444-.395 1.315-.888 2.63-1.414 3.913a43.2 43.2 0 0 0 2.795-6.773c1.512-5.885.427-12.23.361-18.345z"/>
            </g>
            <g>
                <path fill="#FFF" d="M196.405 639.124H181.48v-16.241h14.926zM147.462 634.97l-11.173-6.998 7.923-12.65 11.173 6.998z"/>
                <path fill="#1B1B1C" d="M176.68 652.899h-17.524L126.74 634.29l9.205-15.287 1.644 1.446-1.25 5.556 14.335 8.285 3.288-4.8 2.959 1.48 2.202 9.205 6.181 5.162 4.537.296a7.299 7.299 0 0 1 6.806 7.266h.032z"/>
                <path fill="#1F0645" d="M176.12 559.332l-36.295 61.249 12.92 7.529 25.25-29.59z"/>
                <path fill="#5708D3" d="M176.68 652.899h-17.524L126.74 634.29l2.761-4.602 33.14 18.772c1.118-4.471 2.696-3.287 2.696-3.287l4.537.295a7.299 7.299 0 0 1 6.805 7.43z"/>
                <path fill="#2B2046" d="M171.255 567.55l4.866-8.218 1.874 39.189-4.965 5.852z" opacity=".3"/>
                <path fill="#1F0645" d="M219.847 474.28v7.134c.01 3.208-.411 6.404-1.25 9.501l-19.233 71.934s.46 57.173-1.183 66.083h-18.707l-3.452-71.376 1.677-60.197a48.789 48.789 0 0 1-7.792-26.301v-4.735h49.972l-.032 7.956z"/>
                <path fill="#2B2046" d="M193.973 562.85l19.265-71.935a35.77 35.77 0 0 0 1.25-8.515h5.26a35.77 35.77 0 0 1-1.25 8.515l-19.134 71.934s.46 57.173-1.183 66.083h-5.26c1.643-8.91 1.052-66.083 1.052-66.083z" opacity=".3"/>
                <path fill="#1B1B1C" d="M176.548 652.899h56.285v-1.94a6.805 6.805 0 0 0-6.806-6.806h-2.465l-19.726-13.874h-2.565v4.077h-22.093l-.888-4.24h-1.742v22.783z"/>
                <path fill="#5708D3" d="M232.833 650.959v2.104h-56.285v-4.077h43.299a4.504 4.504 0 0 1 3.715-4.997h2.4a6.805 6.805 0 0 1 6.87 6.97z"/>
                <path fill="#FFF" d="M254.466 407.671a8.416 8.416 0 0 0-7.069-3.846h-9.863a8.384 8.384 0 0 0-5.786 2.334l-.493.46h-16.439v4.077h39.65v-3.025zM169.874 343.595l15.912 12.493 13.578-17.26-7.232-13.94a10.915 10.915 0 0 0-12.625-5.49l-1.644 11.144a16.899 16.899 0 0 1-4.208 8.91l-3.781 4.143z"/>
                <path fill="#F5F7F9" d="M277.107 414.653l-57.829-.04a.79.79 0 0 1-.789-.791l.003-3.944a.79.79 0 0 1 .79-.79l57.829.041a.79.79 0 0 1 .789.79l-.003 3.944a.79.79 0 0 1-.79.79z"/>
                <path fill="#DFE2EC" d="M218.466 411.682c.01-.594.231-1.165.624-1.61a2.597 2.597 0 0 0 2.565 2.564h54.28a2.532 2.532 0 0 0 1.939-.954v.362a2.564 2.564 0 0 1-2.564 2.564h-54.247a2.564 2.564 0 0 1-2.597-2.564v-.362zM275.605 408.526c.374.2.838.069 1.053-.296l26.005-46.323a.789.789 0 0 0-.296-1.052.723.723 0 0 0-1.052.296l-26.005 46.29a.723.723 0 0 0 .295 1.085z"/>
                <path fill="#191C3C" d="M236.581 410.597h5.096v1.94h-5.096zM230.564 410.597h5.096v1.94h-5.096zM262.783 410.63h5.096v1.94h-5.096z"/>
                <path fill="#525D7A" d="M185.326 322.948l.23-3.288a10.882 10.882 0 0 1 6.576 5.392l7.232 13.94-3.748 4.767-3.583-3.288a21.666 21.666 0 0 1-6.707-17.523z" opacity=".15"/>
                <path fill="#FFF" d="M220.537 309.304v10.85l-3.78 2.038-.264 10.553-3.288-1.48-4.34 6.84a7.332 7.332 0 0 1-10.421 2.037l-5.49-3.879a21.567 21.567 0 0 1-9.173-16.077l-1.118-14.367 2.038-1.71a38.038 38.038 0 0 1 31.66-8.12l1.677.329 1.743 6.28c.557 2.19.811 4.446.756 6.706z"/>
                <path fill="#525D7A" d="M182.532 305.95l2.038-1.709a38.038 38.038 0 0 1 31.66-8.12l1.677.328 1.742 6.28c.59 2.142.888 4.353.888 6.575v.92a9.468 9.468 0 0 1-2.663-.92c-.986-.559-.953-.822-1.907-.263-.953.559-1.118.92-1.742 1.282a9.205 9.205 0 0 1-8.384.33 1.02 1.02 0 0 0-.723-.198c-.256.117-.457.33-.56.592-3.287 6.575-6.344 6.016-6.213 4.208a6.28 6.28 0 0 0-1.413-4.997 5.425 5.425 0 0 0-5.984-1.513c-1.907.954-3.65 1.874-4.175 3.945a24.756 24.756 0 0 0-.855 8.187c.329 1.61-2.104 1.676-2.269-.56l-1.117-14.366z" opacity=".15"/>
                <path fill="#1F0645" d="M179.934 312.855c0-2.499 0-4.997.329-7.496a30.214 30.214 0 0 1 6.148-15.288 7.726 7.726 0 0 1 5.852-2.926c1.141.267 2.317.356 3.485.263.953-.296 1.512-1.282 2.268-1.94a7.2 7.2 0 0 1 3.913-1.446 20.482 20.482 0 0 1 15.287 4.701c1.381 1.151 2.598 2.499 3.88 3.748 3.288 3.288 6.838 6.773 11.803 5.26h.427a7.2 7.2 0 0 1-2.893 5.392 17.852 17.852 0 0 1-5.688 2.73c-1.305.452-2.665.728-4.044.821a8.614 8.614 0 0 1-4.602-1.118c-.987-.559-.987-.822-1.907-.263-.92.56-1.118.92-1.743 1.282a9.107 9.107 0 0 1-8.383.33 1.052 1.052 0 0 0-.756-.198 1.02 1.02 0 0 0-.526.625c-1.316 2.827-1.579 6.049-2.663 8.975a1.348 1.348 0 0 1-.494.756 1.512 1.512 0 0 1-.854 0l-3.288-.362c.329-1.742.888-3.485 1.052-5.26a6.345 6.345 0 0 0-1.414-5.03 5.227 5.227 0 0 0-5.95-.79 7.463 7.463 0 0 0-3.683 4.998c-.46 2.09-.46 4.255 0 6.345a5.753 5.753 0 0 1-.164 5.228 4.603 4.603 0 0 1-2.367 1.413c-1.38.494-2.762.954-4.175 1.348.67-4 1.055-8.043 1.15-12.098z"/>
                <g fill="#413068">
                    <path d="M221.096 295.89c-1.282-1.249-2.499-2.597-3.88-3.748a20.482 20.482 0 0 0-15.287-4.7 6.937 6.937 0 0 0-3.913 1.446c-.756.624-1.315 1.644-2.268 1.94-.953.295-2.367-.264-3.485-.264a7.726 7.726 0 0 0-5.852 2.926 30.115 30.115 0 0 0-6.148 15.551c-.296 2.466-.263 4.997-.329 7.496-.066 2.499-.329 5.523-.657 8.252l-.493.164a85.282 85.282 0 0 0 1.15-11.934c0-2.498 0-4.997.329-7.496a30.214 30.214 0 0 1 6.148-15.287 7.726 7.726 0 0 1 5.852-2.926c1.141.267 2.317.355 3.485.263.953-.296 1.512-1.283 2.268-1.94a7.2 7.2 0 0 1 3.913-1.447 20.482 20.482 0 0 1 15.287 4.702c1.381 1.15 2.598 2.498 3.88 3.748 3.288 3.287 6.838 6.772 11.803 5.26h.427a6.05 6.05 0 0 1-1.118 3.288c-4.57 1.282-7.989-2.006-11.112-5.294z"/>
                    <path d="M185.326 315.616c0 .56.164 1.118.263 1.644a7.463 7.463 0 0 1 0 3.978v-.46a17.063 17.063 0 0 1-.263-5.162zM196.603 315.255c-.078.63-.188 1.255-.329 1.874h-.723c.263-1.447.657-2.893.887-4.34.177.81.232 1.64.165 2.466z"/>
                </g>
                <path fill="#1F0645" d="M198.312 340.274h-.263c.296-.592.625-1.118.954-1.677l3.287-5.392a6.575 6.575 0 0 1 3.288-3.287 5.195 5.195 0 0 1 2.992.296 15.32 15.32 0 0 1 3.88 1.94l-3.979 6.246a7.332 7.332 0 0 1-10.159 1.874z"/>
                <path fill="#F6F6F6" d="M201.534 341.326c.206-.408.436-.804.69-1.184l2.368-3.813a4.504 4.504 0 0 1 2.433-2.302 3.88 3.88 0 0 1 2.104.198 9.666 9.666 0 0 1 1.676.756l-2.07 3.287a7.299 7.299 0 0 1-6.806 3.288h-.197l-.198-.23z"/>
                <path fill="#2B2046" d="M169.874 466.356h49.973v15.847c-14.598 1.94-35.507-10.225-49.842-8.515a11.408 11.408 0 0 1 0-2.598l-.131-4.734z" opacity=".3"/>
                <path fill="#5708D3" d="M170.696 342.707l-5.293 7.759a47.244 47.244 0 0 0-4.307 9.6 55.402 55.402 0 0 0-3.584 15.65v8.514a44.425 44.425 0 0 0 1.02 9.567l5.852 25.841a75.616 75.616 0 0 1 1.15 25.348l-3.65 27.354c15.321-11.113 48.954 10.487 65.754.328l-9.205-49.315a128.778 128.778 0 0 0-1.447-15.09l-2.334-15.222a81.699 81.699 0 0 0-19.529-41.26l-3.09-3.518-21.337-5.556z"/>
                <g fill="#312075" opacity=".15">
                    <path d="M161.096 360.066a47.244 47.244 0 0 1 4.208-9.6l5.293-7.76 2.992.757-4.767 7.003a49.315 49.315 0 0 0-4.241 9.6 55.299 55.299 0 0 0-3.485 15.65v8.514a44.416 44.416 0 0 0 1.02 9.567l5.555 25.841a75.616 75.616 0 0 1 1.15 25.348l-3.287 25.414a13.973 13.973 0 0 0-3.748 1.94l3.65-27.354a75.616 75.616 0 0 0-1.151-25.348l-5.655-25.84a44.425 44.425 0 0 1-1.02-9.568v-8.515a55.402 55.402 0 0 1 3.486-15.65z"/>
                </g>
                <path fill="#623FE9" d="M188.975 372.164l12.296 44.91 45.797 1.184 1.316 7.923-48.263 7.134a14.597 14.597 0 0 1-15.453-8.515l-19.726-44.12a10.093 10.093 0 0 1 6.116-13.71l5.03-1.644a10.093 10.093 0 0 1 12.887 6.838z"/>
                <path fill="#312075" d="M169.184 382.586l17.26 38.73a14.597 14.597 0 0 0 15.452 8.481l46.027-6.772.526 3.287-48.328 7.003a14.597 14.597 0 0 1-15.453-8.515l-19.726-44.12c-4.043-7.858 3.157.394 4.242 1.906z" opacity=".15"/>
                <path fill="#FFF" d="M248.384 425.26l19.298-3.287 8.68-3.09 3.55-4.965a4.175 4.175 0 0 0-.46-5.59l-.723-.723-7.66 7.694-21.206-.23-2.663 4.306 1.184 5.885z"/>
                <path fill="#525D7A" d="M248.384 422.86l19.298-3.287.986-.362a21.304 21.304 0 0 0 11.606-9.863v3.288l-3.912 5.49-8.68 3.814-19.298 3.287-1.118-5.885.361-.558.757 4.076z" opacity=".15"/>
            </g>
        </g>
    </g>
</svg>
