<?xml version="1.0" encoding="UTF-8"?>
<svg width="242.41" height="95.54" version="1.1" viewBox="0 0 242.40533 95.540001" xml:space="preserve" xmlns="http://www.w3.org/2000/svg" xmlns:cc="http://creativecommons.org/ns#" xmlns:dc="http://purl.org/dc/elements/1.1/" xmlns:rdf="http://www.w3.org/1999/02/22-rdf-syntax-ns#"><metadata><rdf:RDF><cc:Work rdf:about=""><dc:format>image/svg+xml</dc:format><dc:type rdf:resource="http://purl.org/dc/dcmitype/StillImage"/></cc:Work></rdf:RDF></metadata><defs><clipPath id="u"><path d="m146.24 58.64c-3.497-7.837-6.551-16.206-9.442-24.285l-7.449-18.957-4.178-9.263 0.569-0.292c2.585-1.331 5.344-2.112 8.264-2.05 0.979 0.019 1.935 0.135 2.898 0.304 0.642 0.112 1.312 0.272 1.956 0.343 1.013 0.111 2.004 1.652 2.501 2.434 0.925 1.456 1.733 3.049 2.486 4.6 1.166 2.402 2.269 4.885 3.275 7.359l11.821 30.792c1.055 2.456 2.229 4.93 3.459 7.3 0.582 1.12 1.188 2.235 1.847 3.312 3.141 5.135 9.783 5.486 15.452 5.886l2.104 0.148-1.8 1.099c-1.216 0.742-2.78 1.393-4.107 1.879-3.368 1.235-6.96 1.94-10.544 2.068-0.255 9e-3 -0.508 0.014-0.761 0.014-8.433-1e-3 -14.951-5.068-18.351-12.691"/></clipPath><linearGradient id="c" x2="1" gradientTransform="matrix(-49.408 -70.563 -70.563 49.408 173.13 75.029)" gradientUnits="userSpaceOnUse"><stop stop-color="#72cddc" offset="0"/><stop stop-color="#098ac5" offset=".38"/><stop stop-color="#00aae3" offset=".55"/><stop stop-color="#2e3092" offset="1"/></linearGradient><clipPath id="o"><path d="m143.33 49.428c-2.08-5.44-4.113-10.769-5.893-15.3l-7.462-18.992-3.922-8.695c6.325-3.257 10.607-1.567 12.736-1.333 2.13 0.236 7.712 13.979 7.712 13.979l11.82 30.793c6.55 14.195 5.553 14.969 21.337 16.915 0.011 1e-3 -5.811 3.545-14.325 3.849-0.243 8e-3 -0.482 0.013-0.72 0.013-11.711-1e-3 -17.153-10.432-21.283-21.229"/></clipPath><linearGradient id="b" x2="1" gradientTransform="matrix(158.91 99.299 99.299 -158.91 71.815 -10.54)" gradientUnits="userSpaceOnUse"><stop stop-color="#0f0c45" offset="0"/><stop stop-color="#1b2663" offset=".3"/><stop stop-color="#00559f" offset=".54"/><stop stop-color="#72cddc" offset="1"/></linearGradient><clipPath id="n"><path d="m84.795 64.668s7.713-18.435 8.215-20.258c0.5-1.824 10.717-29.274 13.021-33.831 2.304-4.559 8.113-8.712 14.223-9.826 12.836-2.341 19.727 4.219 19.6 4.393 0 0-13.689-2.265-18.598 5.331-4.908 7.597-10.617 24.31-10.617 24.31-2.295 6.149-7.413 22.783-10.934 27.723-1.074 1.506-3.35 3.098-4.043 3.414-0.348 0.158-0.903 0.224-1.583 0.224-3.232 0-9.284-1.48-9.284-1.48"/></clipPath><linearGradient id="a" x2="1" gradientTransform="matrix(214.72 0 0 -214.72 2.6292 33.198)" gradientUnits="userSpaceOnUse"><stop stop-color="#110d44" offset="0"/><stop stop-color="#121353" offset=".24"/><stop stop-color="#3151a3" offset=".47"/><stop stop-color="#00b8e3" offset=".73"/><stop stop-color="#6bc6e6" offset="1"/></linearGradient><clipPath id="m"><path d="m92.827 52.756 9.938-26.065c3.131-8.473 6.309-21.465 16.04-24.059 2.615-0.698 8.63-0.524 8.63-0.524s-7.41 1.83-11.42 7.671-7.148 15.778-7.148 15.778l-8.543 21.881-3.661 8.369z"/></clipPath><linearGradient id="l" x2="1" gradientTransform="matrix(168.75 -194.12 -194.12 -168.75 24.407 123.32)" gradientUnits="userSpaceOnUse"><stop stop-color="#130b3b" offset="0"/><stop stop-color="#151a58" offset=".23"/><stop stop-color="#0ea9e1" offset=".5"/><stop stop-color="#b4e3f6" offset=".79"/><stop stop-color="#a6d8ea" offset=".92"/><stop stop-color="#d2eef8" offset="1"/></linearGradient><clipPath id="x"><path d="m95.613 64.913s0.7-0.599 2.099-1.399c1.401-0.8 7.699-16.297 7.699-16.297l7.599-21.597s4.899-12.198 9.498-17.697c4.6-5.499 14.498-4.4 14.498-4.4l0.7-0.049 1.075 0.9s-3.9-0.175-5.399-0.025c-1.5 0.149-5.074 0.975-8.074 2.675-3 1.699-7.699 10.698-7.699 10.698-5.99 13.729-9.759 28.066-15.997 41.093-2.652 5.538-4.817 6.147-5.641 6.147-0.232 0-0.358-0.049-0.358-0.049"/></clipPath><linearGradient id="k" x2="1" gradientTransform="matrix(2753.4 -4967.3 -4967.3 -2753.4 -1261.5 2517.1)" gradientUnits="userSpaceOnUse"><stop stop-color="#3d2b76" offset="0"/><stop stop-color="#241f6a" offset=".18"/><stop stop-color="#231e68" offset=".47"/><stop stop-color="#37c1f1" offset=".83"/><stop stop-color="#2497d4" offset="1"/></linearGradient><clipPath id="w"><path d="m78.616 56.781-8.014-21.474c-1.693-4.953-3.637-9.963-5.731-14.743-1.393-3.18-2.97-6.586-4.855-9.503-0.637-0.986-1.451-1.814-2.411-2.489l-0.567-0.4 0.668-0.185c2.788-0.777 8.92-2.253 11.668-1.817 0.84 0.134 1.722 0.167 2.56 9e-3l0.161-0.03 0.122 0.111c1.426 1.299 2.722 2.847 3.595 4.575 0.697 1.38 1.265 2.904 1.791 4.358 0.735 2.034 1.413 4.092 2.081 6.149 1.649 5.067 3.244 10.148 4.998 15.181 1.077 3.088 2.21 6.165 3.462 9.187 1.122 2.706 2.348 5.414 3.783 7.97 1.569 2.794 4.631 7.668 8.221 7.949l0.564 0.044-0.318 0.468c-1.538 2.269-4.425 4.597-7.208 4.87-0.764 0.075-1.486 0.113-2.172 0.113-6.808-1e-3 -9.91-3.675-12.398-10.343"/></clipPath><linearGradient id="j" x2="1" gradientTransform="matrix(-17.153 -47.128 -47.128 17.153 87.902 59.726)" gradientUnits="userSpaceOnUse"><stop stop-color="#3ec4e2" offset="0"/><stop stop-color="#3dc6ef" offset=".37"/><stop stop-color="#0091cb" offset=".56"/><stop stop-color="#2972b9" offset=".97"/><stop stop-color="#2e3092" offset="1"/></linearGradient><clipPath id="v"><path d="m78.924 56.666-8.014-21.474s-5.709-16.713-10.617-24.31c-0.682-1.054-1.536-1.901-2.499-2.579 0 0 8.324-2.316 11.528-1.808 1.109 0.176 1.992 0.135 2.673 8e-3 1.248 1.16 2.364 2.416 3.487 4.606 7.617 14.853 13.047 49.949 24.64 50.848 0 0-2.951 4.332-6.968 4.728-0.738 0.072-1.435 0.108-2.095 0.108-7.102-1e-3 -9.886-4.101-12.135-10.127"/></clipPath><linearGradient id="i" x2="1" gradientTransform="matrix(-20.293 -55.754 -55.754 20.293 92.793 73.141)" gradientUnits="userSpaceOnUse"><stop stop-color="#3ec4e2" offset="0"/><stop stop-color="#3dc6ef" offset=".18"/><stop stop-color="#0091cb" offset=".31"/><stop stop-color="#2972b9" offset=".67"/><stop stop-color="#2e3092" offset="1"/></linearGradient><clipPath id="t"><path d="m84.881 62.284c-4.687-5.985-13.005-27.967-18.302-41.324-2.098-5.288-4.508-9.467-4.836-10.396 5.645 3.151 9.767 10.2 11.837 15.963 3.508 9.761 13.914 37.231 22.626 37.579-0.264 0.783-1.578 1.157-3.247 1.157-2.787 0-6.563-1.046-8.078-2.979"/></clipPath><linearGradient id="h" x2="1" gradientTransform="matrix(-29.568 -81.237 -81.237 29.568 84.165 51.597)" gradientUnits="userSpaceOnUse"><stop stop-color="#3ec4e2" offset="0"/><stop stop-color="#9edcf3" offset=".11"/><stop stop-color="#bae5f5" offset=".18"/><stop stop-color="#7cd1e7" offset=".44"/><stop stop-color="#6fcee7" offset=".62"/><stop stop-color="#3ac4e7" offset="1"/></linearGradient><clipPath id="s"><path d="m154.52 49.968c-2.832-0.944-6.348-11.095-6.348-11.095-3.329-8.057-8.999-27.301-15.271-32.239l3.965-0.141s1.746 0.708 3.776 3.304 8.686 19.213 8.686 19.213l8.308 21.902s-0.283 0-3.116-0.944"/></clipPath><linearGradient id="g" x2="1" gradientTransform="matrix(-21.244 -69.487 -69.487 21.244 155.89 63.519)" gradientUnits="userSpaceOnUse"><stop stop-color="#2497d4" offset="0"/><stop stop-color="#0f0c45" offset="1"/></linearGradient><clipPath id="r"><path d="m16.198 71.642c-3.575-0.127-7.158-0.831-10.518-2.062-1.323-0.485-2.882-1.134-4.093-1.873l-1.587-0.968 1.854-0.131c5.702-0.403 12.355-0.76 15.515-5.925 0.659-1.078 1.266-2.195 1.849-3.316 1.232-2.372 2.406-4.848 3.464-7.306l11.823-30.802 9e-3 -0.02c5.242-11.13 7.263-19.198 21.468-19.239h0.087c2.257 3e-3 4.821 0.376 6.982 0.948 4.128 1.092 8.806 3.612 11.071 7.315l-1.752-0.687c-1.371-0.372-2.883-0.509-4.301-0.551-15.197-0.453-18.859 16.167-23.4 27.726-1.791 5.006-3.67 10.021-5.613 14.989-2.295 5.869-4.157 12.463-9.036 16.714-1.059 0.923-2.174 1.767-3.376 2.495-2.986 1.806-6.26 2.706-9.724 2.706-0.24 0-0.48-5e-3 -0.722-0.013"/></clipPath><linearGradient id="f" x2="1" gradientTransform="matrix(-158.96 103.23 103.23 158.96 115.9 -16.172)" gradientUnits="userSpaceOnUse"><stop stop-color="#2e3092" offset="0"/><stop stop-color="#098ac5" offset=".38"/><stop stop-color="#00aae3" offset=".55"/><stop stop-color="#2e3092" offset="1"/></linearGradient><clipPath id="q"><path d="m16.22 71.049c-8.514-0.304-14.325-3.849-14.325-3.849 14.735-1.037 15.686-3.799 21.337-16.915l11.819-30.793c5.341-11.341 7.209-18.859 20.933-18.898 0.965-3e-3 3.838 0.113 6.915 0.928 2.246 0.594 8.453 3.468 9.777 5.631-9.925-2.695-15.833 0.508-21.098 8.389l-7.462 18.992c-4.897 13.674-9.528 36.527-27.153 36.528-0.246 0-0.493-4e-3 -0.743-0.013"/></clipPath><linearGradient id="e" x2="1" gradientTransform="matrix(47.419 -56.512 -56.512 -47.419 5.1032 72.716)" gradientUnits="userSpaceOnUse"><stop stop-color="#3960ad" offset="0"/><stop stop-color="#2f6eb6" offset=".15"/><stop stop-color="#0e76bd" offset=".58"/><stop stop-color="#2888c9" offset="1"/></linearGradient><clipPath id="p"><path d="m24.555 54.245 9.938-26.065s5.928-16.04 8.107-18.743c2.179-2.701 5.318-4.619 7.932-5.317 2.616-0.697 8.63-0.524 8.63-0.524s-7.409 1.832-11.419 7.672c-4.01 5.841-7.149 15.779-7.149 15.779l-8.542 21.881-3.661 8.369z"/></clipPath><linearGradient id="d" x2="1" gradientTransform="matrix(168.75 -194.12 -194.12 -168.75 -43.94 124.74)" gradientUnits="userSpaceOnUse"><stop stop-color="#2c6bb5" offset="0"/><stop stop-color="#2272b9" offset=".23"/><stop stop-color="#0ea9e1" offset=".5"/><stop stop-color="#b4e3f6" offset=".79"/><stop stop-color="#a6d8ea" offset=".92"/><stop stop-color="#d2eef8" offset="1"/></linearGradient></defs><g transform="matrix(1.3333 0 0 -1.3333 0 95.54)"><g clip-path="url(#u)"><path d="m146.24 58.64c-3.497-7.837-6.551-16.206-9.442-24.285l-7.449-18.957-4.178-9.263 0.569-0.292c2.585-1.331 5.344-2.112 8.264-2.05 0.979 0.019 1.935 0.135 2.898 0.304 0.642 0.112 1.312 0.272 1.956 0.343 1.013 0.111 2.004 1.652 2.501 2.434 0.925 1.456 1.733 3.049 2.486 4.6 1.166 2.402 2.269 4.885 3.275 7.359l11.821 30.792c1.055 2.456 2.229 4.93 3.459 7.3 0.582 1.12 1.188 2.235 1.847 3.312 3.141 5.135 9.783 5.486 15.452 5.886l2.104 0.148-1.8 1.099c-1.216 0.742-2.78 1.393-4.107 1.879-3.368 1.235-6.96 1.94-10.544 2.068-0.255 9e-3 -0.508 0.014-0.761 0.014-8.433-1e-3 -14.951-5.068-18.351-12.691" fill="url(#c)"/></g><g clip-path="url(#o)"><path d="m143.33 49.428c-2.08-5.44-4.113-10.769-5.893-15.3l-7.462-18.992-3.922-8.695c6.325-3.257 10.607-1.567 12.736-1.333 2.13 0.236 7.712 13.979 7.712 13.979l11.82 30.793c6.55 14.195 5.553 14.969 21.337 16.915 0.011 1e-3 -5.811 3.545-14.325 3.849-0.243 8e-3 -0.482 0.013-0.72 0.013-11.711-1e-3 -17.153-10.432-21.283-21.229" fill="url(#b)"/></g><g clip-path="url(#n)"><path d="m84.795 64.668s7.713-18.435 8.215-20.258c0.5-1.824 10.717-29.274 13.021-33.831 2.304-4.559 8.113-8.712 14.223-9.826 12.836-2.341 19.727 4.219 19.6 4.393 0 0-13.689-2.265-18.598 5.331-4.908 7.597-10.617 24.31-10.617 24.31-2.295 6.149-7.413 22.783-10.934 27.723-1.074 1.506-3.35 3.098-4.043 3.414-0.348 0.158-0.903 0.224-1.583 0.224-3.232 0-9.284-1.48-9.284-1.48" fill="url(#a)"/></g><g clip-path="url(#m)"><path d="m92.827 52.756 9.938-26.065c3.131-8.473 6.309-21.465 16.04-24.059 2.615-0.698 8.63-0.524 8.63-0.524s-7.41 1.83-11.42 7.671-7.148 15.778-7.148 15.778l-8.543 21.881-3.661 8.369z" fill="url(#l)"/></g><g clip-path="url(#x)"><path d="m95.613 64.913s0.7-0.599 2.099-1.399c1.401-0.8 7.699-16.297 7.699-16.297l7.599-21.597s4.899-12.198 9.498-17.697c4.6-5.499 14.498-4.4 14.498-4.4l0.7-0.049 1.075 0.9s-3.9-0.175-5.399-0.025c-1.5 0.149-5.074 0.975-8.074 2.675-3 1.699-7.699 10.698-7.699 10.698-5.99 13.729-9.759 28.066-15.997 41.093-2.652 5.538-4.817 6.147-5.641 6.147-0.232 0-0.358-0.049-0.358-0.049" fill="url(#k)"/></g><g clip-path="url(#w)"><path d="m78.616 56.781-8.014-21.474c-1.693-4.953-3.637-9.963-5.731-14.743-1.393-3.18-2.97-6.586-4.855-9.503-0.637-0.986-1.451-1.814-2.411-2.489l-0.567-0.4 0.668-0.185c2.788-0.777 8.92-2.253 11.668-1.817 0.84 0.134 1.722 0.167 2.56 9e-3l0.161-0.03 0.122 0.111c1.426 1.299 2.722 2.847 3.595 4.575 0.697 1.38 1.265 2.904 1.791 4.358 0.735 2.034 1.413 4.092 2.081 6.149 1.649 5.067 3.244 10.148 4.998 15.181 1.077 3.088 2.21 6.165 3.462 9.187 1.122 2.706 2.348 5.414 3.783 7.97 1.569 2.794 4.631 7.668 8.221 7.949l0.564 0.044-0.318 0.468c-1.538 2.269-4.425 4.597-7.208 4.87-0.764 0.075-1.486 0.113-2.172 0.113-6.808-1e-3 -9.91-3.675-12.398-10.343" fill="url(#j)"/></g><g clip-path="url(#v)"><path d="m78.924 56.666-8.014-21.474s-5.709-16.713-10.617-24.31c-0.682-1.054-1.536-1.901-2.499-2.579 0 0 8.324-2.316 11.528-1.808 1.109 0.176 1.992 0.135 2.673 8e-3 1.248 1.16 2.364 2.416 3.487 4.606 7.617 14.853 13.047 49.949 24.64 50.848 0 0-2.951 4.332-6.968 4.728-0.738 0.072-1.435 0.108-2.095 0.108-7.102-1e-3 -9.886-4.101-12.135-10.127" fill="url(#i)"/></g><g clip-path="url(#t)"><path d="m84.881 62.284c-4.687-5.985-13.005-27.967-18.302-41.324-2.098-5.288-4.508-9.467-4.836-10.396 5.645 3.151 9.767 10.2 11.837 15.963 3.508 9.761 13.914 37.231 22.626 37.579-0.264 0.783-1.578 1.157-3.247 1.157-2.787 0-6.563-1.046-8.078-2.979" fill="url(#h)"/></g><g clip-path="url(#s)"><path d="m154.52 49.968c-2.832-0.944-6.348-11.095-6.348-11.095-3.329-8.057-8.999-27.301-15.271-32.239l3.965-0.141s1.746 0.708 3.776 3.304 8.686 19.213 8.686 19.213l8.308 21.902s-0.283 0-3.116-0.944" fill="url(#g)"/></g><g clip-path="url(#r)"><path d="m16.198 71.642c-3.575-0.127-7.158-0.831-10.518-2.062-1.323-0.485-2.882-1.134-4.093-1.873l-1.587-0.968 1.854-0.131c5.702-0.403 12.355-0.76 15.515-5.925 0.659-1.078 1.266-2.195 1.849-3.316 1.232-2.372 2.406-4.848 3.464-7.306l11.823-30.802 9e-3 -0.02c5.242-11.13 7.263-19.198 21.468-19.239h0.087c2.257 3e-3 4.821 0.376 6.982 0.948 4.128 1.092 8.806 3.612 11.071 7.315l-1.752-0.687c-1.371-0.372-2.883-0.509-4.301-0.551-15.197-0.453-18.859 16.167-23.4 27.726-1.791 5.006-3.67 10.021-5.613 14.989-2.295 5.869-4.157 12.463-9.036 16.714-1.059 0.923-2.174 1.767-3.376 2.495-2.986 1.806-6.26 2.706-9.724 2.706-0.24 0-0.48-5e-3 -0.722-0.013" fill="url(#f)"/></g><g clip-path="url(#q)"><path d="m16.22 71.049c-8.514-0.304-14.325-3.849-14.325-3.849 14.735-1.037 15.686-3.799 21.337-16.915l11.819-30.793c5.341-11.341 7.209-18.859 20.933-18.898 0.965-3e-3 3.838 0.113 6.915 0.928 2.246 0.594 8.453 3.468 9.777 5.631-9.925-2.695-15.833 0.508-21.098 8.389l-7.462 18.992c-4.897 13.674-9.528 36.527-27.153 36.528-0.246 0-0.493-4e-3 -0.743-0.013" fill="url(#e)"/></g><g clip-path="url(#p)"><path d="m24.555 54.245 9.938-26.065s5.928-16.04 8.107-18.743c2.179-2.701 5.318-4.619 7.932-5.317 2.616-0.697 8.63-0.524 8.63-0.524s-7.409 1.832-11.419 7.672c-4.01 5.841-7.149 15.779-7.149 15.779l-8.542 21.881-3.661 8.369z" fill="url(#d)"/></g></g></svg>
