<svg xmlns="http://www.w3.org/2000/svg" xmlns:xlink="http://www.w3.org/1999/xlink" width="649" height="466" viewBox="0 0 649 466">
  <defs>
    <linearGradient id="linear-gradient" x1="0.5" x2="0.5" y2="1" gradientUnits="objectBoundingBox">
      <stop offset="0" stop-color="#ffa340"/>
      <stop offset="0" stop-color="#ffa43f"/>
      <stop offset="1" stop-color="#fcd224"/>
    </linearGradient>
    <clipPath id="clip-eCommerce_Business_is_struggling_to_take-off_1">
      <rect width="649" height="466"/>
    </clipPath>
  </defs>
  <g id="eCommerce_Business_is_struggling_to_take-off_1" data-name="eCommerce Business is struggling to take-off_1" clip-path="url(#clip-eCommerce_Business_is_struggling_to_take-off_1)">
    <rect width="649" height="466" fill="#fff"/>
    <g id="Group_69" data-name="Group 69">
      <rect id="Rectangle_96" data-name="Rectangle 96" width="457" height="288" rx="144" transform="translate(141 54)" fill="#a6d4f5" opacity="0.44"/>
      <text id="About_Us" data-name="About Us" transform="translate(340.777 61.499)" fill="#fff" font-size="8" font-family="Montserrat-Medium, Montserrat" font-weight="500"><tspan x="0" y="0">About Us</tspan></text>
      <rect id="Rectangle_4" data-name="Rectangle 4" width="42.596" height="0.739" transform="translate(340.218 63.91)" fill="#fff"/>
      <path id="Path_2" data-name="Path 2" d="M746.095,422.418c0,3.078-100.722,5.568-224.981,5.568S296.12,425.5,296.12,422.418s100.735-5.568,224.994-5.568S746.095,419.341,746.095,422.418Z" transform="translate(-245.437 -3.737)" fill="#b3b3b3" fill-rule="evenodd" opacity="0.46"/>
      <path id="Path_3" data-name="Path 3" d="M484.48,296.221H679.025a7.081,7.081,0,0,1,7.159,8.28l-17.4,129.971a9.832,9.832,0,0,1-9.376,8.28H464.842a7.107,7.107,0,0,1-7.159-8.28l17.4-129.971a9.793,9.793,0,0,1,9.376-8.28Z" transform="translate(-196.35 -40.41)" fill="#31274f" fill-rule="evenodd"/>
      <path id="Path_4" data-name="Path 4" d="M483.531,301.012h191.82a2.973,2.973,0,0,1,3,3.469l-16.991,127.18a4.055,4.055,0,0,1-3.912,3.443h-191.9a2.947,2.947,0,0,1-3-3.443l17.056-127.232a4.082,4.082,0,0,1,3.912-3.469Z" transform="translate(-194.854 -38.968)" fill="#73d0eb" fill-rule="evenodd"/>
      <path id="Path_5" data-name="Path 5" d="M573.11,326.3h59.15l-8.281,61.093H564.83Z" transform="translate(-163.747 -31.265)" fill="#a2d8eb" fill-rule="evenodd"/>
      <path id="Path_6" data-name="Path 6" d="M680.954,408.53H390.16v5.92a5.972,5.972,0,0,0,5.946,5.959H675.021a5.972,5.972,0,0,0,5.933-5.959Z" transform="translate(-216.848 -6.266)" fill="#2a2c4a" fill-rule="evenodd"/>
      <path id="Path_7" data-name="Path 7" d="M647.066,408.53H501.63v5.92a5.985,5.985,0,0,0,5.959,5.959H641.133a5.972,5.972,0,0,0,5.933-5.959Z" transform="translate(-182.96 -6.266)" fill="#404266" fill-rule="evenodd"/>
      <path id="Path_8" data-name="Path 8" d="M574.89,252.89H546.124L521.035,419.7a1.773,1.773,0,0,0-.391,0,10.561,10.561,0,0,0-9.6,6.885,11.819,11.819,0,0,0-13.927-2.777c-4.72,2.281-7.772,7.5-7.759,13.259a15.413,15.413,0,0,0,2.3,8.2l-.143.336c-8.723.541-16.314,6.871-19.286,16.08a14.54,14.54,0,0,0-7.537-2.164h-.926l-1.213,10.233a3.589,3.589,0,0,0,.683,2.727,2.813,2.813,0,0,0,2.316,1.132h191.82a4.246,4.246,0,0,0,3.912-3.859l1.03-8.7a19.721,19.721,0,0,0-6.794-1.462,14.565,14.565,0,0,0-7.524,2.163,24.292,24.292,0,0,0-8.385-12.031,15.667,15.667,0,0,0-3.656-14.862,11.879,11.879,0,0,0-13.531-2.754,15.7,15.7,0,0,0-11.171-9.4,14.329,14.329,0,0,0-13.345,4.615Z" transform="translate(-194.345 -77.48)" fill="#fefefe" fill-rule="evenodd" opacity="0.5"/>
      <path id="Path_9" data-name="Path 9" d="M529.106,247.82c-4.407,19.117,1.447,36.864,11.736,52.682,10.289-15.818,16.1-33.565,11.736-52.682Z" transform="translate(-174.55 -79.021)" fill="#ff5a19" fill-rule="evenodd"/>
      <path id="Path_10" data-name="Path 10" d="M533.324,246.51c-2.23,9.741.756,18.843,6.011,26.9,5.216-8.059,8.228-17.161,6-26.9Z" transform="translate(-173.043 -79.42)" fill-rule="evenodd" fill="url(#linear-gradient)"/>
      <path id="Path_11" data-name="Path 11" d="M530.993,232.53s-12.245,2.973-18.465,9.493-1.839,20.6-1.839,20.6c3.325-7.981,15.961-14.892,23.968-12.74Z" transform="translate(-180.153 -83.67)" fill="#0165b0" fill-rule="evenodd"/>
      <path id="Path_12" data-name="Path 12" d="M527.773,239.656c-.574-1.852-1.148-3.912-1.656-5.946-4.121,1.487-9.924,4.095-13.588,7.954-6.233,6.52-1.839,20.6-1.839,20.6-.352-4.877.2-10.654,3.69-14.344s8.985-6.52,13.392-8.28Z" transform="translate(-180.154 -83.311)" fill="#018bf5" fill-rule="evenodd"/>
      <path id="Path_13" data-name="Path 13" d="M550.454,232.53s12.245,2.973,18.465,9.493,1.839,20.6,1.839,20.6c-3.325-7.981-15.961-14.892-23.968-12.74Z" transform="translate(-170.248 -86.212)" fill="#0165b0" fill-rule="evenodd"/>
      <path id="Path_14" data-name="Path 14" d="M552.07,239.656c.574-1.852,1.121-3.912,1.669-5.946,4.108,1.487,9.884,4.095,13.575,7.954,6.233,6.52,1.839,20.6,1.839,20.6.352-4.877-.2-10.654-3.716-14.344s-8.946-6.52-13.366-8.28Z" transform="translate(-168.643 -85.853)" fill="#018bf5" fill-rule="evenodd"/>
      <path id="Path_15" data-name="Path 15" d="M533.45,244.05c-.391.156-5.4,4.812-5.4,4.812l-1.421,6.716H555.4l-1.421-6.716s-5.007-4.655-5.425-4.812Z" transform="translate(-174.851 -80.168)" fill="#1d3673" fill-rule="evenodd"/>
      <path id="Path_16" data-name="Path 16" d="M527.271,249.57H554.76a.7.7,0,0,1,.717.717h0a.717.717,0,0,1-.717.717H527.271a.7.7,0,0,1-.691-.717h0a.7.7,0,0,1,.691-.717Z" transform="translate(-174.867 -78.489)" fill="#3b569e" fill-rule="evenodd"/>
      <path id="Path_17" data-name="Path 17" d="M530.8,284.507c-8.124-12.271-14.879-54.442-14.422-82.153.691-43.423,22.533-70.312,27.762-75.554,5.216,5.216,27.045,32.131,27.762,75.554.456,27.71-6.311,69.882-14.448,82.153Z" transform="translate(-177.976 -115.813)" fill="#f1f1f1" fill-rule="evenodd"/>
      <path id="Path_18" data-name="Path 18" d="M540.162,186.515a12.558,12.558,0,1,0-12.532-12.532A12.558,12.558,0,0,0,540.162,186.515Z" transform="translate(-174.547 -105.294)" fill="#fffefe" fill-rule="evenodd"/>
      <path id="Path_19" data-name="Path 19" d="M549.923,172.521a10.745,10.745,0,0,1-18.973,6.911A17.369,17.369,0,0,0,547.9,166.21,10.68,10.68,0,0,1,549.923,172.521Z" transform="translate(-173.538 -103.832)" fill="#56b3f5" fill-rule="evenodd"/>
      <path id="Path_20" data-name="Path 20" d="M548.412,167.175A17.37,17.37,0,0,1,531.46,180.4a10.75,10.75,0,0,1,16.952-13.223Z" transform="translate(-174.074 -104.797)" fill="#dbf0ff" fill-rule="evenodd"/>
      <path id="Path_21" data-name="Path 21" d="M542.719,126.8c-3.547,3.521-14.631,16.952-21.7,38.638h43.371c-7.042-21.7-18.152-35.117-21.673-38.638Z" transform="translate(-176.557 -115.813)" fill="#018bf5" fill-rule="evenodd"/>
      <path id="Path_22" data-name="Path 22" d="M541.827,128.46c-3.3,3.169-13.536,15.348-19.247,35.026h8.437c5.425-16.952,9.389-28.114,10.81-35.026Z" transform="translate(-176.083 -115.308)" fill="#0165b0" fill-rule="evenodd"/>
      <path id="Path_23" data-name="Path 23" d="M536.689,266.233c-6.39-15.387-11.332-49.657-10.954-73.025A121.867,121.867,0,0,1,531.408,158h-8.15a120.307,120.307,0,0,0-5.633,34.934c-.417,26.25,5.829,66.165,13.34,77.8h8.02a29.293,29.293,0,0,1-2.282-4.538Z" transform="translate(-177.595 -106.328)" fill="#fff" fill-rule="evenodd"/>
      <path id="Path_24" data-name="Path 24" d="M538.287,233.64c-2.1,10.549-1.108,17.643,0,28.753Z" transform="translate(-171.682 -83.332)" fill="#018bf5" fill-rule="evenodd"/>
      <path id="Path_25" data-name="Path 25" d="M538,233.64c2.112,10.549,1.121,17.643,0,28.753Z" transform="translate(-171.395 -83.332)" fill="#0165b0" fill-rule="evenodd"/>
      <path id="Path_26" data-name="Path 26" d="M463.763,401.955l-1.213,9.128a2.947,2.947,0,0,0,3,3.443h85.739v-.769a11.41,11.41,0,0,0-11.41-11.4,11.176,11.176,0,0,0-5.646,1.513,24.463,24.463,0,0,0-36.278-17.63,19.388,19.388,0,0,0-1.134-4.629,19.769,19.769,0,0,0-18.53-12.792,19.56,19.56,0,0,0-10.51,3.012Z" transform="translate(-194.854 -18.338)" fill="#eee" fill-rule="evenodd"/>
      <path id="Path_27" data-name="Path 27" d="M589.27,386.01c-10.941,0-20.264,8.046-23.85,19.338a17.761,17.761,0,0,0-12.1-4.916c-7.615,0-14.214,5.086-17.408,12.466h99.1a4.055,4.055,0,0,0,3.912-3.443l1.03-7.759,3.782-27.7c-6.9,1.434-12.545,7.133-14.853,14.644a19.329,19.329,0,0,0-6.077-.991,20.119,20.119,0,0,0-2.947.222,19.157,19.157,0,0,0-5.881,1.943,22.165,22.165,0,0,0-6.52,5.151,23.851,23.851,0,0,0-18.256-8.919Z" transform="translate(-172.539 -16.764)" fill="#eee" fill-rule="evenodd"/>
      <path id="Path_28" data-name="Path 28" d="M527.585,329.14l4.76-28.14h-52.03a4.082,4.082,0,0,0-3.912,3.469l-3.312,24.776Z" transform="translate(-191.637 -38.956)" fill="#00a3c8" fill-rule="evenodd"/>
      <path id="Path_29" data-name="Path 29" d="M555.8,301.024l4.173,28.141h86.7L650,304.389a2.973,2.973,0,0,0-3-3.469Z" transform="translate(-166.492 -38.981)" fill="#00a3c8" fill-rule="evenodd"/>
      <path id="Path_30" data-name="Path 30" d="M480.321,327.25h27.293l-3.821,28.193H476.5Z" transform="translate(-190.6 -30.976)" fill="#eee" fill-rule="evenodd"/>
      <path id="Path_31" data-name="Path 31" d="M566.868,312h63.518a2.778,2.778,0,0,1,2.778,2.778h0a2.778,2.778,0,0,1-2.778,2.778H566.868a2.791,2.791,0,0,1-2.778-2.778h0A2.79,2.79,0,0,1,566.867,312Z" transform="translate(-163.972 -35.612)" fill="#eee" fill-rule="evenodd"/>
      <path id="Path_32" data-name="Path 32" d="M577.521,331.68h36.225a1.591,1.591,0,0,1,1.578,1.591h0a1.6,1.6,0,0,1-1.578,1.591H577.521a1.6,1.6,0,0,1-1.591-1.591h0A1.591,1.591,0,0,1,577.521,331.68Z" transform="translate(-160.372 -29.629)" fill="#eee" fill-rule="evenodd"/>
      <path id="Path_33" data-name="Path 33" d="M576.911,338.18h36.225a1.6,1.6,0,0,1,1.578,1.591h0a1.591,1.591,0,0,1-1.578,1.591H576.911a1.6,1.6,0,0,1-1.591-1.591h0A1.617,1.617,0,0,1,576.911,338.18Z" transform="translate(-160.558 -27.653)" fill="#eee" fill-rule="evenodd"/>
      <path id="Path_34" data-name="Path 34" d="M576.441,345.07h18.517a1.591,1.591,0,0,1,1.578,1.578h0a1.591,1.591,0,0,1-1.578,1.591H576.441a1.591,1.591,0,0,1-1.591-1.591h0a1.591,1.591,0,0,1,1.591-1.578Z" transform="translate(-160.7 -25.559)" fill="#eee" fill-rule="evenodd"/>
      <path id="Path_35" data-name="Path 35" d="M571.576,356.07h48.2l-2.152,15.9H569.45Z" transform="translate(-162.342 -22.214)" fill="#fefefe" fill-rule="evenodd"/>
      <path id="Path_36" data-name="Path 36" d="M477.162,353.26h31.192a1.382,1.382,0,0,1,1.382,1.369h0a1.369,1.369,0,0,1-1.382,1.382H477.162a1.369,1.369,0,0,1-1.382-1.382h0a1.382,1.382,0,0,1,1.382-1.369Z" transform="translate(-190.819 -23.069)" fill="#eee" fill-rule="evenodd"/>
      <path id="Path_37" data-name="Path 37" d="M476.635,358.87h31.192a1.382,1.382,0,0,1,1.382,1.369h0a1.382,1.382,0,0,1-1.382,1.3H476.635a1.382,1.382,0,0,1-1.4-1.3h0a1.382,1.382,0,0,1,1.4-1.369Z" transform="translate(-190.983 -21.363)" fill="#eee" fill-rule="evenodd"/>
      <path id="Path_38" data-name="Path 38" d="M476.235,364.8H492.17a1.382,1.382,0,0,1,1.369,1.369h0a1.369,1.369,0,0,1-1.369,1.3H476.235a1.382,1.382,0,0,1-1.4-1.3h0a1.4,1.4,0,0,1,1.4-1.369Z" transform="translate(-191.105 -19.56)" fill="#eee" fill-rule="evenodd"/>
      <path id="Path_39" data-name="Path 39" d="M482.554,316.72h13.158a1.161,1.161,0,0,1,1.173,1.134h0a1.173,1.173,0,0,1-1.173,1.174H482.554a1.174,1.174,0,0,1-1.174-1.174h0A1.161,1.161,0,0,1,482.554,316.72Z" transform="translate(-189.116 -34.177)" fill="#eee" fill-rule="evenodd"/>
      <path id="Path_40" data-name="Path 40" d="M500.064,316.72h13.158a1.16,1.16,0,0,1,1.173,1.134h0a1.173,1.173,0,0,1-1.173,1.174H500.064a1.174,1.174,0,0,1-1.174-1.174h0a1.16,1.16,0,0,1,1.174-1.134Z" transform="translate(-183.793 -34.177)" fill="#eee" fill-rule="evenodd"/>
      <path id="Path_41" data-name="Path 41" d="M467.634,408.53H415.2a4.368,4.368,0,0,0,4.121,2.973h44.232a4.316,4.316,0,0,0,4.082-2.973Z" transform="translate(-209.236 -6.266)" fill="#3b569e" fill-rule="evenodd"/>
      <rect id="Rectangle_7" data-name="Rectangle 7" width="4.316" height="5.177" transform="translate(374.012 404.416)" fill="#3e3938"/>
      <rect id="Rectangle_8" data-name="Rectangle 8" width="16.235" height="5.177" transform="translate(357.764 404.416)" fill="#1d3673"/>
      <rect id="Rectangle_9" data-name="Rectangle 9" width="4.29" height="5.177" transform="translate(404.109 404.416)" fill="#3e3938"/>
      <rect id="Rectangle_10" data-name="Rectangle 10" width="16.235" height="5.177" transform="translate(387.874 404.416)" fill="#1d3673"/>
      <path id="Path_42" data-name="Path 42" d="M436.361,263.64h71.655l-10.015,74H426.32Z" transform="translate(-205.855 -50.314)" fill="#a2d8eb" fill-rule="evenodd" opacity="0.62"/>
      <path id="Path_43" data-name="Path 43" d="M617.265,287.42h71.669l-10.041,74H607.25Z" transform="translate(-150.851 -43.085)" fill="#a2d8eb" fill-rule="evenodd" opacity="0.62"/>
      <path id="Path_44" data-name="Path 44" d="M588.935,223.82H660.6l-10.015,74.016H578.92Z" transform="translate(-159.463 -62.42)" fill="#a2d8eb" fill-rule="evenodd" opacity="0.62"/>
      <path id="Path_45" data-name="Path 45" d="M506,263.64H434.342l-1.382,10.106h71.668Z" transform="translate(-203.836 -50.314)" fill="#00a3c8" fill-rule="evenodd"/>
      <path id="Path_46" data-name="Path 46" d="M658.588,223.82H586.919l-1.369,10.145h71.681Z" transform="translate(-157.448 -62.42)" fill="#00a3c8" fill-rule="evenodd"/>
      <path id="Path_47" data-name="Path 47" d="M686.918,287.42H615.249l-1.369,10.119h71.655Z" transform="translate(-148.835 -43.085)" fill="#00a3c8" fill-rule="evenodd"/>
      <path id="Path_48" data-name="Path 48" d="M474.108,265.73a2.36,2.36,0,0,1,2.4,2.608,3.012,3.012,0,0,1-2.921,2.673,2.386,2.386,0,0,1-2.412-2.673A3.025,3.025,0,0,1,474.108,265.73Z" transform="translate(-192.224 -49.679)" fill-rule="evenodd" fill="url(#linear-gradient)"/>
      <path id="Path_49" data-name="Path 49" d="M482.609,265.69a2.36,2.36,0,0,1,2.4,2.673,3.025,3.025,0,0,1-2.921,2.686,2.386,2.386,0,0,1-2.413-2.686A3,3,0,0,1,482.609,265.69Z" transform="translate(-189.641 -49.691)" fill="#2d3d7d" fill-rule="evenodd"/>
      <path id="Path_50" data-name="Path 50" d="M439.891,277.33h36.225a1.591,1.591,0,0,1,1.578,1.578h0a1.591,1.591,0,0,1-1.578,1.591H439.891a1.591,1.591,0,0,1-1.591-1.591h0a1.591,1.591,0,0,1,1.591-1.578Z" transform="translate(-202.213 -46.152)" fill="#eee" fill-rule="evenodd"/>
      <path id="Path_51" data-name="Path 51" d="M439.281,283.842h36.225a1.591,1.591,0,0,1,1.578,1.526h0a1.591,1.591,0,0,1-1.578,1.591H439.281a1.6,1.6,0,0,1-1.591-1.591h0a1.6,1.6,0,0,1,1.591-1.578Z" transform="translate(-202.398 -44.188)" fill="#eee" fill-rule="evenodd"/>
      <path id="Path_52" data-name="Path 52" d="M438.811,290.71h18.517a1.591,1.591,0,0,1,1.578,1.591h0a1.591,1.591,0,0,1-1.578,1.578H438.811a1.591,1.591,0,0,1-1.591-1.578h0A1.591,1.591,0,0,1,438.811,290.71Z" transform="translate(-202.541 -42.085)" fill="#eee" fill-rule="evenodd"/>
      <path id="Path_53" data-name="Path 53" d="M459.4,295.86h27.28l-3.821,28.193H455.58Z" transform="translate(-196.96 -40.519)" fill="#eee" fill-rule="evenodd"/>
      <path id="Path_54" data-name="Path 54" d="M591.368,236.56h36.226a1.6,1.6,0,0,1,1.591,1.591h0a1.6,1.6,0,0,1-1.591,1.591H591.368a1.591,1.591,0,0,1-1.578-1.591h0A1.591,1.591,0,0,1,591.368,236.56Z" transform="translate(-156.159 -58.547)" fill="#eee" fill-rule="evenodd"/>
      <path id="Path_55" data-name="Path 55" d="M590.714,243.07h25.963a1.591,1.591,0,0,1,1.591,1.578h0a1.591,1.591,0,0,1-1.591,1.591H590.714a1.6,1.6,0,0,1-1.6-1.591h0A1.6,1.6,0,0,1,590.714,243.07Z" transform="translate(-156.365 -56.568)" fill="#eee" fill-rule="evenodd"/>
      <path id="Path_56" data-name="Path 56" d="M590.241,250h18.517a1.591,1.591,0,0,1,1.591,1.578h0a1.591,1.591,0,0,1-1.591,1.591H590.241a1.591,1.591,0,0,1-1.591-1.591h0A1.591,1.591,0,0,1,590.241,250Z" transform="translate(-156.505 -54.461)" fill="#eee" fill-rule="evenodd"/>
      <path id="Path_57" data-name="Path 57" d="M589.208,258.2h27.919a1.578,1.578,0,0,1,1.591,1.591h0a1.591,1.591,0,0,1-1.591,1.578H589.208a1.591,1.591,0,0,1-1.578-1.578h0a1.578,1.578,0,0,1,1.578-1.591Z" transform="translate(-156.815 -51.968)" fill="#eee" fill-rule="evenodd"/>
      <path id="Path_58" data-name="Path 58" d="M588.578,264.68h36.238a1.591,1.591,0,0,1,1.591,1.591h0a1.617,1.617,0,0,1-1.591,1.617H588.578A1.6,1.6,0,0,1,587,266.271h0A1.591,1.591,0,0,1,588.578,264.68Z" transform="translate(-157.007 -49.998)" fill="#eee" fill-rule="evenodd"/>
      <path id="Path_59" data-name="Path 59" d="M588.119,271.586h18.569a1.591,1.591,0,0,1,1.591,1.591h0a1.591,1.591,0,0,1-1.591,1.565H588.171a1.591,1.591,0,0,1-1.591-1.591h0a1.591,1.591,0,0,1,1.591-1.591Z" transform="translate(-157.135 -47.906)" fill="#eee" fill-rule="evenodd"/>
      <path id="Path_60" data-name="Path 60" d="M629.918,300.79H657.2l-3.821,28.18H626.11Z" transform="translate(-145.117 -39.02)" fill="#eee" fill-rule="evenodd"/>
      <path id="Path_61" data-name="Path 61" d="M622.241,327.31h36.212a1.6,1.6,0,0,1,1.591,1.6h0a1.591,1.591,0,0,1-1.591,1.591H622.241a1.591,1.591,0,0,1-1.591-1.591h0a1.6,1.6,0,0,1,1.591-1.6Z" transform="translate(-146.777 -30.958)" fill="#eee" fill-rule="evenodd"/>
      <path id="Path_62" data-name="Path 62" d="M627.051,334.1h18.517a1.6,1.6,0,0,1,1.591,1.578h0a1.591,1.591,0,0,1-1.591,1.591H627.051a1.578,1.578,0,0,1-1.591-1.591h0a1.591,1.591,0,0,1,1.591-1.578Z" transform="translate(-145.315 -28.894)" fill="#eee" fill-rule="evenodd"/>
      <path id="Path_63" data-name="Path 63" d="M627.061,225.63a2.386,2.386,0,0,1,2.412,2.673,3.052,3.052,0,0,1-2.96,2.686,2.4,2.4,0,0,1-2.4-2.686,3.012,3.012,0,0,1,2.947-2.673Z" transform="translate(-145.729 -61.87)" fill-rule="evenodd" fill="url(#linear-gradient)"/>
      <path id="Path_64" data-name="Path 64" d="M635.534,225.59a2.386,2.386,0,0,1,2.412,2.686,3.051,3.051,0,0,1-2.934,2.608,2.373,2.373,0,0,1-2.4-2.608,3.012,3.012,0,0,1,2.921-2.686Z" transform="translate(-143.144 -61.882)" fill="#2d3d7d" fill-rule="evenodd"/>
      <path id="Path_65" data-name="Path 65" d="M655.236,289.59a2.36,2.36,0,0,1,2.4,2.673,3.012,3.012,0,0,1-2.921,2.686,2.373,2.373,0,0,1-2.4-2.686,3,3,0,0,1,2.921-2.673Z" transform="translate(-137.157 -42.425)" fill-rule="evenodd" fill="url(#linear-gradient)"/>
      <path id="Path_66" data-name="Path 66" d="M663.744,289.55a2.373,2.373,0,0,1,2.4,2.673,3.012,3.012,0,0,1-2.921,2.686,2.4,2.4,0,0,1-2.438-2.686,3.038,3.038,0,0,1,2.96-2.673Z" transform="translate(-134.581 -42.437)" fill="#2d3d7d" fill-rule="evenodd"/>
      <path id="Path_67" data-name="Path 67" d="M397.047,360.867s-.17,4.76-.091,7.537.691,5.033-.4,5.007c-.887,0-1.3-5.007-1.8-5.112s-1.2,7.824-2.334,8.033.613-7.954.352-8.007-2.856,7.824-3.912,7.289,1.865-7.707,1.6-8.2-3.912,6.768-4.981,6.024,3.7-6.663,3.351-6.911-5.086,4.434-5.725,3.638,9.024-9.715,9.024-9.715Z" transform="translate(-219.001 -20.883)" fill="#f5ae69" fill-rule="evenodd"/>
      <path id="Path_68" data-name="Path 68" d="M448.754,335.631c-17.082,8.88-53.8,41.1-53.8,41.1l-5.451-2.478c15-31.635,46.058-46.11,69.113-57.794C467.193,312.107,474.926,322.017,448.754,335.631Z" transform="translate(-217.049 -34.571)" fill="#56b3f5" fill-rule="evenodd"/>
      <path id="Path_69" data-name="Path 69" d="M493.683,299.719c5.307,7.107,2.778,17.148-6.963,25.78-5.138,4.564-10.967,9.545-14.853,9.519-4.225,0-7.72-3.912-10.223-7.237-5.294-7.12-3.247-18.517,6.52-27.149s20.251-8.007,25.532-.913Z" transform="translate(-195.982 -41)" fill="#f5ae69" fill-rule="evenodd"/>
      <path id="Path_70" data-name="Path 70" d="M473.59,319.065c-.417,1.1-7.107,13.588-7.107,13.588s-17.213-10.862-15.257-12.714S462.01,308.75,462.01,308.75Z" transform="translate(-198.33 -36.6)" fill="#f5ae69" fill-rule="evenodd"/>
      <path id="Path_71" data-name="Path 71" d="M450.81,316.848a34.372,34.372,0,0,1,3.795-4.538c.248,0,12.023,5.829,14.631,8.476a12.427,12.427,0,0,1,2.921,6.82Z" transform="translate(-198.41 -35.518)" fill="#0165b0" fill-rule="evenodd"/>
      <path id="Path_72" data-name="Path 72" d="M421.6,372.84c-3.273,1.539-6.52,6.429-6.52,6.429-1.93,10.289,4.773,51.561,10.967,54.364,4.355,1.956,11.5.5,13.679-2.373s-3.117-49.983-3.117-49.983Z" transform="translate(-209.375 -17.116)" fill="#21081c" fill-rule="evenodd"/>
      <path id="Path_73" data-name="Path 73" d="M425.111,407.561C415.813,405.422,389,406,389,406l-.913,5.829s38.794,10.093,47.453,12.258,6.82-5.216,6.82-5.216c3.443-10.6-7.954-9.128-17.252-11.306Z" transform="translate(-217.477 -7.058)" fill="#21081c" fill-rule="evenodd"/>
      <path id="Path_74" data-name="Path 74" d="M393.537,408.963c-.326-.274-2.113-2.7-3.351-2.973s-5.4.743-5.894,2.608,1.161,4.082.939,4.9-1.213,8.437.822,9.519,10.158,1.813,10.21.274-3.638-3.273-3.495-6.442.769-7.941.769-7.941Z" transform="translate(-218.66 -7.052)" fill-rule="evenodd"/>
      <path id="Path_75" data-name="Path 75" d="M435.044,374.925l20.525,10.836s25.167,29.6,24.776,39.212-2.191,13.34-12.9,8.307-39.512-43.306-41.924-53.034S435.1,374.9,435.1,374.9Z" transform="translate(-206.194 -16.789)" fill="#21081c" fill-rule="evenodd"/>
      <path id="Path_76" data-name="Path 76" d="M483.07,326.492c-1.552-3.795-15.57-11.436-20.225-11.332-3.651.078-11.41,1.382-11.41,1.382-9.715,15.922-34.53,29.132-38.325,82,9.767-1.865,36.512.522,47.179,5.646-10.9-44.493,33.565-62.2,22.781-77.693Z" transform="translate(-209.871 -34.652)" fill="#56b3f5" fill-rule="evenodd"/>
      <path id="Path_77" data-name="Path 77" d="M459.132,316.467c2.895,4.668,9.989,8.189,14.814,6.3s2.191-6.664,5.464-8.424,4.877,1.3,4.708,3.025-.2,2.608-.2,2.608l.365,1.434,7.315-8.724s3.4,4.342,8.333,3.912c11.658-.978-7.954-22.168-12.049-24.255-4.981-2.5-11.136.443-11.136.443s-.691-2.921-5.594-1.382c-6.181,1.93-14.9,20.382-12.023,25.037Z" transform="translate(-196.052 -42.009)" fill="#261302" fill-rule="evenodd"/>
      <path id="Path_78" data-name="Path 78" d="M492.48,388.3s3.221,1.591,4.069,1.813a35.327,35.327,0,0,1,4.564,3.077s6.611,13.536,5.073,13.262-3.912-5.412-3.912-5.412a18.353,18.353,0,0,1-2.947,1.865c-.978.365-5.307.861-6.129-.5a4.225,4.225,0,0,1-.2-3.169l-.652-2.712Z" transform="translate(-185.781 -12.416)" fill="#f5ae69" fill-rule="evenodd"/>
      <path id="Path_79" data-name="Path 79" d="M469.7,323.3c20.329,67.808,26.08,64.483,38.155,86.547l-4.173,5.881C502.144,413.537,423.46,327.538,469.7,323.3Z" transform="translate(-197.088 -32.177)" fill="#56b3f5" fill-rule="evenodd"/>
      <path id="Path_80" data-name="Path 80" d="M466.613,408.857c-9.3-2.152-36.03-1.187-36.03-1.187l-.913,5.829s33.317,9.689,41.976,11.814,7.9-4.577,7.9-4.577c1.043-11.006-3.638-9.754-12.936-11.88Z" transform="translate(-204.837 -6.593)" fill="#21081c" fill-rule="evenodd"/>
      <path id="Path_81" data-name="Path 81" d="M435.1,410.312c-.339-.274-2.126-2.725-3.364-2.973s-5.386.743-5.881,2.608,1.135,4.108.913,4.929-1.187,8.411.848,9.493,10.158,1.813,10.21.274-3.664-3.273-3.495-6.442.769-7.915.769-7.915Z" transform="translate(-206.026 -6.64)" fill-rule="evenodd"/>
      <path id="Path_82" data-name="Path 82" d="M341.782,274.892c-11.136,15.713-10.25,56.646-10.25,56.646l-6,.3c-6.833-33.774-3.247-61.732,11.932-82.661C343.112,241.352,358.865,250.82,341.782,274.892Z" transform="translate(-237.504 -55.528)" fill="#3872a3" fill-rule="evenodd"/>
      <path id="Path_83" data-name="Path 83" d="M347.855,294.01l-32.1.939.665,31.361,1.747.1,34.856-2.2Z" transform="translate(-239.469 -41.081)" fill="#efa200" fill-rule="evenodd"/>
      <path id="Path_84" data-name="Path 84" d="M348.683,294.41,317.1,295.518l.652,30.775,36.59-2.086Z" transform="translate(-239.059 -40.96)" fill-rule="evenodd" fill="url(#linear-gradient)"/>
      <path id="Path_85" data-name="Path 85" d="M353.435,210.43c8.854,0,15.4,8.033,16.5,20.995.561,6.872,1.082,14.488-1.3,17.578-2.608,3.377-7.746,3.912-11.932,3.912-8.867,0-16.783-8.476-17.878-21.477s5.712-20.995,14.579-20.995Z" transform="translate(-232.492 -66.49)" fill="#f5ae69" fill-rule="evenodd"/>
      <path id="Path_86" data-name="Path 86" d="M361.543,237.418c.13,1.2,1.591,15.9,1.591,15.9s-18.373-.143-18.256-1.069-2.478-16.1-2.478-16.1Z" transform="translate(-231.367 -58.674)" fill="#f5ae69" fill-rule="evenodd"/>
      <path id="Path_87" data-name="Path 87" d="M370.625,412a36.294,36.294,0,0,0,3.586,1.982c.378,0,12.179,5.138,12.323,5.5s-.8.7-1.9,1.1-10.836.769-10.836.769-8.476.665-8.724-.222a65.77,65.77,0,0,1,.717-7.733l4.16-1.3Z" transform="translate(-224.476 -5.211)" fill-rule="evenodd"/>
      <path id="Path_88" data-name="Path 88" d="M340.374,411.3l1.4,1.787.117.469a29.076,29.076,0,0,1,4.59,6.585c.613,1.734-2.8,1.447-2.8,1.447h0a31.168,31.168,0,0,1-7.159.365h0a6.728,6.728,0,0,1-2.712-.365c-.313-.6.874-8.254.874-8.254Z" transform="translate(-233.997 -5.424)" fill="#2d2925" fill-rule="evenodd"/>
      <path id="Path_89" data-name="Path 89" d="M343.677,421.58a21.906,21.906,0,0,1-5.216.4h-1.969a6.519,6.519,0,0,1-2.7-.365c-.326-.6.874-8.254.874-8.254l5.7-2.034,1.382,1.786h-1.6Z" transform="translate(-234.001 -5.415)" fill-rule="evenodd"/>
      <path id="Path_90" data-name="Path 90" d="M382.35,319.428l2.36,10.6-1.148,116.4h-8.372L361.134,341.061l-19.56,104.582-7.094.248,2.7-117.3,3.912-10.21c12.44-19.56,30.983-18.673,41.324,1.03Z" transform="translate(-233.775 -37.993)" fill="#31274f" fill-rule="evenodd"/>
      <path id="Path_91" data-name="Path 91" d="M384.689,330.029l-1.148,116.409H375.17L361.113,341.061l-1.526-6.637-19.56,111.271-5.477.2,2.7-117.3,3.912-10.21c12.44-19.56,30.983-18.673,41.324,1.043Z" transform="translate(-233.754 -37.993)" fill="#31274f" fill-rule="evenodd"/>
      <path id="Path_92" data-name="Path 92" d="M359.811,334.017,340.264,438.6l-1.6.052L358.285,327.38Z" transform="translate(-232.505 -30.937)" fill="#f1f1f1" fill-rule="evenodd" opacity="0.5"/>
      <path id="Path_93" data-name="Path 93" d="M342.181,421.16l-3.521-8.45h1.6l.13.469a29.208,29.208,0,0,1,4.59,6.6C345.623,421.46,342.181,421.16,342.181,421.16Z" transform="translate(-232.505 -4.995)" fill="#f1f1f1" fill-rule="evenodd" opacity="0.5"/>
      <path id="Path_94" data-name="Path 94" d="M341.09,245.73a31.719,31.719,0,0,1,1.3-5.751c.222-.078,13.34-.352,16.861.835a12.531,12.531,0,0,1,5.725,4.747Z" transform="translate(-231.766 -57.532)" fill="#22316d" fill-rule="evenodd"/>
      <path id="Path_95" data-name="Path 95" d="M366.654,244.775c-3.13-2.608-19.065-3.038-23.159-.835a112.759,112.759,0,0,0-9.519,6.442c-1.4,18.6,7.381,57.468,3.364,90.446,11.8-.274,36.851,1.3,48.653,1.043C385.862,325.532,383.384,253.629,366.654,244.775Z" transform="translate(-233.975 -56.734)" fill="#3872a3" fill-rule="evenodd"/>
      <path id="Path_96" data-name="Path 96" d="M346.857,248.82c5.464.469,12.532-3.064,13.914-8.1s-4.016-5.738-3.495-9.4,3.912-3.143,5.216-1.982,1.982,1.708,1.982,1.708l1.3.6-2.608-11.084s5.529-.156,8.163-4.342-2.386-9.128-4.46-9.845-1.2,1.3-4.747,2.5-12.466,0-17.448,2.491-6.3,9.193-6.3,9.193-2.751-1.187-4.46,3.664c-2.139,6.1,7.407,24.124,12.884,24.594Z" transform="translate(-234.038 -67.769)" fill="#6c3506" fill-rule="evenodd"/>
      <path id="Path_97" data-name="Path 97" d="M402.272,215.663c-.417-1.421-3.443-4.342-3.716-5.386s2.125-1.878,2.125-1.878-1.63-1.3-.339-2.608,4.212-.248,4.681-.222a3.664,3.664,0,0,1,2.008.469,4.084,4.084,0,0,1,.665.717,1.434,1.434,0,0,1,.73,1.017c.248.822-1.069,8.228-1.539,8.059a45.668,45.668,0,0,0-4.616-.143Z" transform="translate(-214.302 -68.098)" fill="#f5ae69" fill-rule="evenodd"/>
      <path id="Path_98" data-name="Path 98" d="M367.5,275.558c-7.824-.17-18.765-15.3-8.176-22.012,22.168-.9,46.944-4.838,55.812-40.907l6.52-.17C428.591,243.206,395.326,272.637,367.5,275.558Z" transform="translate(-227.556 -65.87)" fill="#3872a3" fill-rule="evenodd"/>
      <path id="Path_99" data-name="Path 99" d="M329.2,318.819a5.359,5.359,0,0,1,3.417-2.256c1.813-.274,3.377-.613,4.316.5s.574,2.725-1.1,4.264-6.52,1.865-8.072.717a4.121,4.121,0,0,1-1.539-3.051Z" transform="translate(-236.283 -34.308)" fill="#f5ae69" fill-rule="evenodd"/>
      <path id="Path_100" data-name="Path 100" d="M370.7,274.971c26.876-5.216,56.75-33.226,50.139-62.5h-3.247a4.878,4.878,0,0,1-.13.926c-.548,4.016-3.364,20.616-14.8,33.591-8.28,9.363-24.02,16.039-34.53,19.677-6.181,2.139-10.51,3.234-10.51,3.234,2.53,3.221,6.025,5.529,9.063,5.594,1.3-.143,2.608-.339,4.016-.587Z" transform="translate(-226.74 -65.87)" fill="#f1f1f1" fill-rule="evenodd" opacity="0.5"/>
      <path id="Path_101" data-name="Path 101" d="M378.719,337.6c-.078-11.553-1.4-50.856-8.02-76.037-1.3.248-2.7.443-4.016.587-3.038-.065-6.52-2.373-9.063-5.594,0,0,12.023,30.631,12.023,43.332A223.5,223.5,0,0,1,367.7,323.86c-.913,7.615-1.8,13.614-1.8,13.614,3.769.1,7.263.17,10.236.156h2.608Z" transform="translate(-226.74 -52.466)" fill="#f1f1f1" fill-rule="evenodd" opacity="0.5"/>
      <path id="Path_102" data-name="Path 102" d="M374.206,318.766c-2.973,0-6.52,0-10.236-.156l5.046,16.222.978,105.625v1.578h4.551l1.2-116.4Z" transform="translate(-224.81 -33.603)" fill="#f1f1f1" fill-rule="evenodd" opacity="0.5"/>
      <path id="Path_103" data-name="Path 103" d="M385.4,419.008c-.952-.7-11.879-5.412-12.258-5.464a2.216,2.216,0,0,1-.639-.274H368.59s10.328,3.6,16.809,5.738Z" transform="translate(-223.406 -4.825)" fill="#f1f1f1" fill-rule="evenodd" opacity="0.5"/>
      <path id="Path_104" data-name="Path 104" d="M441.15,396.683a53.581,53.581,0,0,1,9.676,2.895c.326.143.639.3.939.417-5.451-22.285,2.973-37.816,11.384-49.774-3.547-8.463-4.955-16.026-2.5-21.281-.926,1.447-12.1,18.869-15.87,28.323-3.3,8.176-3.6,29.992-3.625,37.138Z" transform="translate(-201.347 -30.462)" fill="#f1f1f1" fill-rule="evenodd" opacity="0.5"/>
      <path id="Path_105" data-name="Path 105" d="M475.332,421.443a18.451,18.451,0,0,0-1.408-4.408v-.078a61.545,61.545,0,0,0-3.469-6.52c-.443-.743-.926-1.513-1.421-2.282-1.6-2.608-3.39-5.151-5.216-7.681-5.92-8.254-12.1-15.648-12.962-16.639a53.567,53.567,0,0,0-9.676-2.895s13.144,14.227,21.8,25.95a68.793,68.793,0,0,1,6.416,10.093h0c.2.469.391.887.522,1.3a26.523,26.523,0,0,1,1.565,10.51,21.517,21.517,0,0,1-.7,4.564,3,3,0,0,1-.091.443c6.024.365,5.425-5.007,5.425-5.007C476.453,425.224,476.154,422.942,475.332,421.443Z" transform="translate(-201.337 -14.654)" fill="#f1f1f1" fill-rule="evenodd" opacity="0.5"/>
      <path id="Path_106" data-name="Path 106" d="M487.366,380.072c-.43-.861-.874-1.786-1.3-2.725-.691-1.565-1.434-3.221-2.2-5.007-.378-.861-.743-1.786-1.148-2.725-.6-1.434-1.187-2.973-1.813-4.564l-.965-2.5c-2.06-5.5-4.342-12-6.859-19.782-1.226-3.769-2.5-7.824-3.912-12.245-.143-.5-.3-.991-.469-1.513-.326-1.1-.678-2.23-1.017-3.377-.2-.639-.4-1.3-.6-1.956a.273.273,0,0,0,0-.144l-.117.065a2.764,2.764,0,0,0-1.148,1.069c-1.213,1.813-2.478,6.077-1.161,15.57a35.847,35.847,0,0,0,1.734,6.4c1.148,3.221,2.778,6.99,4.708,11.071,2.882,6.129,6.52,12.975,10.249,19.638.522.913,1.03,1.839,1.552,2.725.73,1.3,1.474,2.608,2.191,3.795,1.539,2.608,3.051,5.216,4.538,7.563,4.512,7.315,8.646,13.483,11.449,17.056a16.478,16.478,0,0,0,2.856,3.051l1.239-1.734h0c-2.282-4.186-4.342-7.485-6.324-10.51l-2.269-3.43c-1.617-2.452-3.195-4.877-4.864-7.733a1.4,1.4,0,0,1-.17-.274c-1.3-2.282-2.7-4.812-4.16-7.824Z" transform="translate(-194.372 -32.107)" fill="#f1f1f1" fill-rule="evenodd" opacity="0.5"/>
      <path id="Path_107" data-name="Path 107" d="M500.423,392.767a35.316,35.316,0,0,0-4.564-3.077l-1.239,1.734c5.672,3.795,3.742,2.608,4.734,3.351s6.272,10.236,6.272,10.236c-.743-3.1-5.216-12.245-5.216-12.245Z" transform="translate(-185.091 -11.994)" fill="#f1f1f1" fill-rule="evenodd" opacity="0.5"/>
      <path id="Path_108" data-name="Path 108" d="M504.134,204.624h-4.095a15.257,15.257,0,0,0-15.114-13.17,15.089,15.089,0,0,0-4.016.548,15.257,15.257,0,0,0-28.036,1.3,15.1,15.1,0,0,0-7.25-1.826,15.257,15.257,0,0,0-15.114,13.171H430.2a11.136,11.136,0,1,0,0,22.273h73.937a11.136,11.136,0,1,0,0-22.272Z" transform="translate(-208.062 -74.715)" fill="#fefefe" fill-rule="evenodd" opacity="0.53"/>
      <path id="Path_109" data-name="Path 109" d="M651.573,185.065h-4.082a15.283,15.283,0,0,0-15.126-13.184,15.085,15.085,0,0,0-4.016.561,15.244,15.244,0,0,0-28.023,1.3,15.257,15.257,0,0,0-22.377,11.345H577.6a11.136,11.136,0,0,0,0,22.273h73.924a11.136,11.136,0,1,0,0-22.272Z" transform="translate(-163.251 -80.663)" fill="#fefefe" fill-rule="evenodd" opacity="0.53"/>
    </g>
  </g>
</svg>
